<svg width="29" height="24" viewBox="0 0 29 24" fill="none" xmlns="http://www.w3.org/2000/svg">
<path d="M14.4998 22.8253C12.5296 21.4769 10.2488 20.6177 7.85713 20.3285C6.16087 19.9935 4.4327 19.8352 2.70192 19.8564C2.48046 19.8582 2.26081 19.8174 2.05565 19.7363C1.85049 19.6552 1.66388 19.5354 1.5066 19.3838C1.34933 19.2323 1.22449 19.0519 1.13929 18.8531C1.0541 18.6544 1.01025 18.4412 1.01025 18.2259L1.04088 2.78151C1.03995 2.36711 1.20135 1.96792 1.49227 1.66506C1.7832 1.3622 2.18182 1.1784 2.60713 1.15101C4.369 1.11696 6.12944 1.27005 7.85713 1.60755C10.2462 1.90722 12.5253 2.76433 14.4998 4.10576M14.4998 22.8253V4.10576M14.4998 22.8253C16.47 21.4769 18.7509 20.6177 21.1425 20.3285C22.8388 19.9935 24.567 19.8352 26.2978 19.8564C26.5192 19.8582 26.7389 19.8174 26.944 19.7363C27.1492 19.6552 27.3358 19.5354 27.4931 19.3838C27.6503 19.2323 27.7752 19.0519 27.8604 18.8531C27.9456 18.6544 27.9894 18.4412 27.9894 18.2259L27.9573 2.78151C27.9583 2.36734 27.7971 1.96834 27.5065 1.66552C27.2159 1.36269 26.8176 1.17874 26.3925 1.15101C24.6307 1.11696 22.8702 1.27005 21.1425 1.60755C18.7535 1.90722 16.4744 2.76433 14.4998 4.10576" stroke="white" stroke-opacity="0.85" stroke-width="1.5" stroke-linecap="round" stroke-linejoin="round"/>
</svg>
