<svg width="22" height="20" viewBox="0 0 22 20" fill="none" xmlns="http://www.w3.org/2000/svg">
<path d="M13.5295 0.146304C14.1946 0.146304 14.8135 0.489161 15.1658 1.05402L16.4695 3.14288H18.5001C19.2389 3.14288 19.9474 3.43637 20.4699 3.95879C20.9923 4.48122 21.2858 5.18977 21.2858 5.92859V16.6429C21.2858 17.3817 20.9923 18.0903 20.4699 18.6127C19.9474 19.1351 19.2389 19.4286 18.5001 19.4286H3.50007C2.76125 19.4286 2.0527 19.1351 1.53027 18.6127C1.00785 18.0903 0.714355 17.3817 0.714355 16.6429V5.92859C0.714355 5.18977 1.00785 4.48122 1.53027 3.95879C2.0527 3.43637 2.76125 3.14288 3.50007 3.14288H5.70207L6.88578 1.10545C7.05533 0.813512 7.29855 0.571198 7.59111 0.402731C7.88367 0.234264 8.21533 0.145546 8.55293 0.145447L13.5295 0.146304ZM13.5295 1.43202H8.55378C8.45772 1.43208 8.36288 1.45367 8.27626 1.4952C8.18963 1.53673 8.11342 1.59715 8.05321 1.67202L7.99836 1.75173L6.62693 4.10887C6.57051 4.20625 6.48951 4.28711 6.39204 4.34337C6.29457 4.39962 6.18404 4.42931 6.0715 4.42945H3.50007C3.10239 4.42945 2.72099 4.58736 2.43971 4.86848C2.15843 5.1496 2.0003 5.53091 2.00007 5.92859V16.6429C2.00007 17.4709 2.67207 18.1429 3.50007 18.1429H18.5001C18.8979 18.1429 19.2794 17.9848 19.5607 17.7035C19.842 17.4222 20.0001 17.0407 20.0001 16.6429V5.92859C20.0001 5.53076 19.842 5.14923 19.5607 4.86793C19.2794 4.58662 18.8979 4.42859 18.5001 4.42859H16.1129C16.0039 4.42854 15.8966 4.40075 15.8012 4.34782C15.7059 4.29488 15.6255 4.21856 15.5678 4.12602L14.0746 1.73373C14.0169 1.64119 13.9366 1.56487 13.8412 1.51193C13.7458 1.459 13.6386 1.43121 13.5295 1.43116M11.0001 6.14459C12.2504 6.14459 13.4495 6.64127 14.3336 7.52537C15.2177 8.40947 15.7144 9.60857 15.7144 10.8589C15.7144 12.1092 15.2177 13.3083 14.3336 14.1924C13.4495 15.0765 12.2504 15.5732 11.0001 15.5732C9.74976 15.5732 8.55067 15.0765 7.66657 14.1924C6.78247 13.3083 6.28578 12.1092 6.28578 10.8589C6.28578 9.60857 6.78247 8.40947 7.66657 7.52537C8.55067 6.64127 9.74976 6.14459 11.0001 6.14459ZM11.0001 7.4303C10.0908 7.4303 9.21869 7.79153 8.5757 8.43451C7.93272 9.07749 7.5715 9.94956 7.5715 10.8589C7.5715 11.7682 7.93272 12.6403 8.5757 13.2832C9.21869 13.9262 10.0908 14.2874 11.0001 14.2874C11.9094 14.2874 12.7815 13.9262 13.4244 13.2832C14.0674 12.6403 14.4286 11.7682 14.4286 10.8589C14.4286 9.94956 14.0674 9.07749 13.4244 8.43451C12.7815 7.79153 11.9094 7.4303 11.0001 7.4303Z" fill="white" fill-opacity="0.85"/>
</svg>
