<svg width="371" height="229" viewBox="0 0 371 229" fill="none" xmlns="http://www.w3.org/2000/svg">
<g clip-path="url(#clip0_770_782)">
<path d="M19.3568 228.488C19.332 228.376 16.9316 217.139 21.8337 207.806C26.7358 198.473 37.1998 194.357 37.3049 194.316L37.7832 194.132L37.8961 194.644C37.921 194.756 40.3213 205.993 35.4192 215.327C30.5173 224.659 20.0531 228.775 19.948 228.816L19.4695 229L19.3568 228.488ZM37.1273 195.381C35.0313 196.307 26.7589 200.358 22.6187 208.24C18.478 216.123 19.7273 225.446 20.1256 227.751C22.2208 226.828 30.4899 222.783 34.6342 214.892C38.7747 207.009 37.5259 197.688 37.1273 195.381V195.381Z" fill="#F1F1F1"/>
<path d="M31.6728 212.053C22.8635 217.494 19.4707 228.301 19.4707 228.301C19.4707 228.301 30.3607 230.287 39.17 224.846C47.9793 219.405 51.3721 208.597 51.3721 208.597C51.3721 208.597 40.4821 206.612 31.6728 212.053Z" fill="#30B84E"/>
<path d="M165.079 124.827C165.213 124.115 165.194 123.382 165.022 122.678C164.851 121.975 164.531 121.319 164.085 120.756C163.64 120.193 163.08 119.738 162.444 119.421C161.809 119.105 161.113 118.935 160.407 118.925L156.328 108.392L149.489 109.376L155.453 124.167C155.514 125.386 156.009 126.54 156.843 127.41C157.678 128.28 158.794 128.805 159.98 128.886C161.167 128.968 162.341 128.6 163.281 127.851C164.221 127.103 164.861 126.027 165.079 124.827Z" fill="#9F616A"/>
<path d="M152.479 121.126L150.36 115.939L137.155 90.1328L137.873 42.3826L138.011 42.3639C146.46 41.2178 152.177 81.1877 152.417 82.8899L160.76 112.185L162.746 118.642L152.479 121.126Z" fill="#75F256"/>
<path d="M132.189 221.815L138.609 221.815L141.663 196.391L132.188 196.391L132.189 221.815Z" fill="#9F616A"/>
<path d="M130.551 219.663L143.195 219.663H143.196C145.333 219.663 147.382 220.534 148.893 222.086C150.404 223.637 151.253 225.741 151.254 227.935V228.204L130.551 228.205L130.551 219.663Z" fill="#2F2E41"/>
<path d="M73.1543 211.773L78.4224 215.541L95.0874 196.475L87.3126 190.913L73.1543 211.773Z" fill="#9F616A"/>
<path d="M73.009 209.046L83.3831 216.467L83.3835 216.467C85.1367 217.722 86.3328 219.64 86.7086 221.8C87.0844 223.96 86.6092 226.184 85.3875 227.984L85.2377 228.205L68.2524 216.054L73.009 209.046Z" fill="#2F2E41"/>
<path d="M128.66 215.839L128.382 168.145L124.343 138.155L116.811 164.528L116.796 164.55L89.5018 205.231L78.8813 199.706L78.9395 199.564C79.5886 197.979 94.8824 160.756 98.9932 160.756C99.3522 160.782 99.7119 160.718 100.041 160.569C100.371 160.421 100.66 160.192 100.884 159.903C102.091 158.249 101.108 154.739 101.098 154.704C99.9216 149.694 102.88 147.988 103.47 147.704L105.055 114.112L105.219 114.123L148.19 117.218L146.387 159.217L142.509 214.243L142.376 214.259L128.66 215.839Z" fill="#2F2E41"/>
<path d="M148.847 124.661L148.661 124.646L102.447 120.821L102.561 105.123L104.823 64.1346L104.836 64.1061L114.047 43.5755L120.577 40.54L130.104 40.0253L130.127 40.0312L138.822 42.2427L147.866 108.898L148.847 124.661Z" fill="#30B84E"/>
<path d="M131.597 34.7636C137.493 31.4545 139.66 23.8646 136.437 17.8111C133.214 11.7576 125.821 9.53282 119.924 12.842C114.028 16.1511 111.861 23.741 115.084 29.7945C118.307 35.848 125.7 38.0728 131.597 34.7636Z" fill="#9F616A"/>
<path d="M113.523 26.9385V22.0714C113.523 22.0714 109.7 17.4488 113.906 16.2843C113.906 16.2843 115.053 4.63979 124.993 10.0739C124.993 10.0739 138.756 7.745 137.227 15.8962C137.227 15.8962 140.668 13.7682 139.521 19.2023L137.303 27.9557C137.303 27.9557 138.374 22.1734 134.933 21.3971L133.022 20.2327C133.022 20.2327 127.669 25.6668 119.641 19.0682C119.641 19.0682 116.2 18.2251 116.582 21.7185C116.964 25.2118 113.523 26.9385 113.523 26.9385Z" fill="#2F2E41"/>
<path d="M124.494 112.938C124.501 112.213 124.354 111.495 124.062 110.835C123.77 110.174 123.341 109.588 122.804 109.116C122.268 108.645 121.637 108.3 120.957 108.106C120.276 107.911 119.562 107.873 118.866 107.992L113.012 98.3825L106.456 100.611L114.909 114.062C115.182 115.25 115.87 116.294 116.843 116.996C117.816 117.698 119.006 118.009 120.187 117.871C121.369 117.732 122.46 117.154 123.253 116.245C124.047 115.335 124.488 114.159 124.494 112.938Z" fill="#9F616A"/>
<path d="M109.373 109.909L98.7817 87.8333L98.7911 87.7796C98.8338 87.5352 103.097 63.2329 106.358 54.3001C109.639 45.3107 114.131 43.5058 114.32 43.4334L114.415 43.3972L118.442 47.363L112.864 85.5912L118.877 104.028L109.373 109.909Z" fill="#75F256"/>
<path d="M371 7.62939e-06H350.493V21.053H371V7.62939e-06Z" fill="#30B84E"/>
<path d="M210.511 81.9236H190.004V102.977H210.511V81.9236Z" fill="#30B84E"/>
<path d="M201.514 93.7511H363.641V9.48939H201.514V93.7511Z" fill="white"/>
<path d="M364.979 95.1242H200.177V8.1163H364.979V95.1242ZM202.852 92.3781H362.304V10.8623H202.852V92.3781Z" fill="#E5E5E5"/>
<path d="M345.713 39.0468H220.975V43.2937H345.713V39.0468Z" fill="#E5E5E5"/>
<path d="M345.713 49.3459H220.975V53.5927H345.713V49.3459Z" fill="#E5E5E5"/>
<path d="M345.713 64.5528H322.531V68.2383H345.713V64.5528Z" fill="#75F256"/>
<path d="M170.297 228.982H0.445803C0.327569 228.982 0.214177 228.933 0.130572 228.848C0.0469681 228.762 0 228.645 0 228.524C0 228.403 0.0469681 228.286 0.130572 228.2C0.214177 228.114 0.327569 228.066 0.445803 228.066H170.297C170.415 228.066 170.528 228.114 170.612 228.2C170.696 228.286 170.743 228.403 170.743 228.524C170.743 228.645 170.696 228.762 170.612 228.848C170.528 228.933 170.415 228.982 170.297 228.982Z" fill="#CBCBCB"/>
</g>
<defs>
<clipPath id="clip0_770_782">
<rect width="371" height="229" fill="white"/>
</clipPath>
</defs>
</svg>
