<svg width="291" height="214" viewBox="0 0 291 214" fill="none" xmlns="http://www.w3.org/2000/svg">
<path d="M0.515625 28.7188C0.703125 27.7812 0.828125 27.0312 0.890625 26.4688C0.953125 25.8438 0.734375 25.1875 0.234375 24.5C0.484375 23.5 0.671875 22.7188 0.796875 22.1562C0.984375 21.5938 1.01562 20.8125 0.890625 19.8125C1.45312 18.1875 2.29688 16.8125 3.42188 15.6875C4.60938 14.5625 5.89062 13.625 7.26562 12.875C8.64062 12.0625 10.0781 11.4062 11.5781 10.9062C13.0781 10.3438 14.4844 9.875 15.7969 9.5C15.7969 9.25 15.6719 9.125 15.4219 9.125C15.1719 9.125 15.1094 8.96875 15.2344 8.65625C18.6094 8.03125 21.9844 7.125 25.3594 5.9375C28.7969 4.75 32.2969 3.6875 35.8594 2.75C39.4219 1.8125 43.0781 1.25 46.8281 1.0625C50.5781 0.8125 54.5156 1.28125 58.6406 2.46875C58.8906 3.21875 59.2344 3.9375 59.6719 4.625C60.1094 5.3125 60.5469 6 60.9844 6.6875C61.4844 7.3125 61.9219 7.9375 62.2969 8.5625C62.6719 9.1875 62.8906 9.84375 62.9531 10.5312C63.7031 11.2188 64.2969 11.9688 64.7344 12.7812C65.2344 13.5312 65.3281 14.5625 65.0156 15.875C64.3281 16.375 63.6094 16.875 62.8594 17.375C62.1094 17.875 61.3281 18.3438 60.5156 18.7812C57.7031 18.0938 54.8906 17.8438 52.0781 18.0312C49.2656 18.2188 46.7344 18.4375 44.4844 18.6875C43.7969 17.9375 42.9844 17.5938 42.0469 17.6562C41.1094 17.6562 40.1094 17.8125 39.0469 18.125C38.0469 18.375 37.0469 18.6562 36.0469 18.9688C35.0469 19.2188 34.1094 19.2812 33.2344 19.1562C32.5469 19.7812 31.6406 20.2188 30.5156 20.4688C29.3906 20.6562 28.2031 20.8125 26.9531 20.9375C26.8906 21.25 26.9531 21.4688 27.1406 21.5938C27.3281 21.7188 27.3594 21.9688 27.2344 22.3438C27.6719 22.9062 28.2656 23.3125 29.0156 23.5625C29.7656 23.75 30.5156 23.9375 31.2656 24.125C32.0781 24.3125 32.7969 24.5938 33.4219 24.9688C34.0469 25.2812 34.4531 25.8125 34.6406 26.5625C35.7656 26.625 36.7344 26.9375 37.5469 27.5C38.3594 28 39.0469 28.625 39.6094 29.375C40.1719 30.125 40.5781 30.9375 40.8281 31.8125C41.0781 32.625 41.1719 33.375 41.1094 34.0625C41.3594 34.6875 41.6094 34.9375 41.8594 34.8125C42.1719 34.6875 42.5156 34.8438 42.8906 35.2812C43.1406 36.2188 43.7031 37.2188 44.5781 38.2812C45.5156 39.2812 46.2344 40.375 46.7344 41.5625C46.8594 43.4375 46.9531 45.125 47.0156 46.625C47.1406 48.125 46.8906 49.5938 46.2656 51.0312C45.2031 53.7812 43.6719 56.25 41.6719 58.4375C39.6719 60.625 37.3906 62.5625 34.8281 64.25C32.3281 65.875 29.6719 67.3125 26.8594 68.5625C24.0469 69.75 21.2656 70.75 18.5156 71.5625C18.2656 71.5 17.9531 71.5 17.5781 71.5625C17.2656 71.625 17.2031 71.4375 17.3906 71C16.8281 71.5 16.1719 71.8125 15.4219 71.9375C14.7344 72.0625 13.9531 72.0938 13.0781 72.0312C12.2656 72.0312 11.4219 72 10.5469 71.9375C9.73438 71.875 8.92188 71.9062 8.10938 72.0312C7.60938 71.5312 7.14062 71.0312 6.70312 70.5312C6.32812 70.0312 6.01562 69.4375 5.76562 68.75C5.45312 68.6875 5.29688 68.5 5.29688 68.1875C5.35938 67.8125 5.23438 67.625 4.92188 67.625C4.92188 67.375 4.95312 67.1875 5.01562 67.0625C5.07812 66.9375 5.14062 66.8125 5.20312 66.6875C5.45312 66.5 5.54688 66.375 5.48438 66.3125C5.48438 66.1875 5.39062 66.0938 5.20312 66.0312C5.07812 65.9062 4.92188 65.7812 4.73438 65.6562C4.60938 65.5312 4.57812 65.375 4.64062 65.1875C4.95312 64.625 5.04688 63.9688 4.92188 63.2188C4.85938 62.4062 4.79688 61.5938 4.73438 60.7812C4.67188 59.9688 4.73438 59.2188 4.92188 58.5312C5.10938 57.7812 5.64062 57.1562 6.51562 56.6562C9.07812 56.9062 11.4844 56.7812 13.7344 56.2812C16.0469 55.7812 18.2031 55.0938 20.2031 54.2188C22.2656 53.3438 24.2031 52.4062 26.0156 51.4062C27.8906 50.3438 29.7031 49.375 31.4531 48.5C31.6406 47.875 31.9219 47.3438 32.2969 46.9062C32.7344 46.4688 33.1719 46.0625 33.6094 45.6875C34.0469 45.25 34.4531 44.8125 34.8281 44.375C35.2031 43.875 35.4844 43.2812 35.6719 42.5938C35.7344 42.3438 35.7344 42.1562 35.6719 42.0312C35.6094 41.9062 35.5156 41.8125 35.3906 41.75C35.2656 41.625 35.1406 41.5 35.0156 41.375C34.8906 41.25 34.8281 41.0625 34.8281 40.8125C34.6406 40.75 34.4531 40.6875 34.2656 40.625C34.1406 40.5625 34.0156 40.5312 33.8906 40.5312C32.2656 39.7188 30.5469 39.0312 28.7344 38.4688C26.9219 37.9062 25.3906 37.2812 24.1406 36.5938C23.3906 37.0938 22.6406 37.2188 21.8906 36.9688C21.1406 36.7188 20.2344 36.4688 19.1719 36.2188C16.5469 36.0938 14.0469 35.8438 11.6719 35.4688C9.35938 35.0938 7.10938 34.4375 4.92188 33.5C4.79688 33.125 4.64062 32.8125 4.45312 32.5625C4.26562 32.25 3.82812 32.1562 3.14062 32.2812C2.70312 31.6562 2.23438 31.0938 1.73438 30.5938C1.29688 30.0312 0.890625 29.4062 0.515625 28.7188ZM56.6719 18.125C56.6094 17.625 56.4844 17.1875 56.2969 16.8125C56.1719 16.375 56.0156 15.9062 55.8281 15.4062C55.5156 14.6562 55.2344 13.8438 54.9844 12.9688C54.7344 12.0938 54.6094 11.0625 54.6094 9.875C54.7344 9.25 54.8906 8.8125 55.0781 8.5625C55.2656 8.25 55.4531 8 55.6406 7.8125L56.0156 6.125H57.4219C57.9219 6.1875 58.4219 6.21875 58.9219 6.21875C59.4844 6.21875 60.0156 6.21875 60.5156 6.21875C62.8906 6.21875 65.3281 6.125 67.8281 5.9375C70.3281 5.75 72.8906 5.53125 75.5156 5.28125C78.3906 4.90625 81.4844 4.625 84.7969 4.4375C85.1094 3.75 85.2969 3.3125 85.3594 3.125C85.4844 2.9375 85.6094 2.71875 85.7344 2.46875L86.7656 1.90625C88.2031 1.84375 89.2031 2.03125 89.7656 2.46875C90.3281 2.84375 90.7656 3.21875 91.0781 3.59375C92.7031 3.46875 94.3594 3.3125 96.0469 3.125C97.7344 2.875 99.4844 2.625 101.297 2.375C103.797 2.0625 106.328 1.75 108.891 1.4375C111.453 1.125 113.953 0.96875 116.391 0.96875C117.453 0.96875 118.453 1 119.391 1.0625C120.328 1.125 121.234 1.21875 122.109 1.34375L123.234 2.1875C123.484 2.625 123.797 3.03125 124.172 3.40625C124.547 3.78125 124.984 4.15625 125.484 4.53125C126.422 5.28125 127.328 6.21875 128.203 7.34375C129.141 8.46875 129.484 10.125 129.234 12.3125L128.766 13.25C128.516 13.5 128.203 13.75 127.828 14L126.891 15.2188H125.859C125.234 15.2188 124.766 15.2812 124.453 15.4062C124.141 15.4688 123.766 15.5938 123.328 15.7812C123.078 15.9062 122.797 16.0312 122.484 16.1562C122.172 16.2188 121.828 16.3125 121.453 16.4375C120.766 16.375 120.234 16.3438 119.859 16.3438C119.484 16.3438 119.047 16.3438 118.547 16.3438C116.672 16.3438 114.641 16.4688 112.453 16.7188C110.266 16.9688 108.141 17.25 106.078 17.5625C104.578 17.75 103.141 17.9375 101.766 18.125C100.391 18.25 99.1406 18.375 98.0156 18.5C97.3906 20.125 96.8281 21.5625 96.3281 22.8125C95.8281 24.0625 95.2969 25.3125 94.7344 26.5625C94.1719 27.8125 93.6406 29.0938 93.1406 30.4062C92.6406 31.6562 92.1719 33.0625 91.7344 34.625C90.9844 35.75 90.3594 36.8438 89.8594 37.9062C89.3594 38.9062 88.9531 40.0625 88.6406 41.375C87.7031 42.4375 87.0156 43.5938 86.5781 44.8438C86.2031 46.0938 85.8594 47.1562 85.5469 48.0312L85.1719 49.4375C84.7344 49.875 84.4531 50.2188 84.3281 50.4688C84.2656 50.7188 84.1094 51 83.8594 51.3125C83.6719 52.125 83.4219 52.9062 83.1094 53.6562C82.9844 53.9688 82.8594 54.3125 82.7344 54.6875C82.6094 55 82.5781 55.25 82.6406 55.4375C82.5156 56.125 82.3281 56.6562 82.0781 57.0312C82.0781 57.4062 82.0469 57.7812 81.9844 58.1562C81.9219 58.5312 81.8594 58.9062 81.7969 59.2812C81.6719 59.7188 81.5781 60.125 81.5156 60.5C81.4531 60.8125 81.4844 61.125 81.6094 61.4375C81.7969 61.6875 81.9844 61.9375 82.1719 62.1875C82.3594 62.4375 82.5156 62.75 82.6406 63.125C82.7656 63.25 82.9219 63.3438 83.1094 63.4062C83.2969 63.4688 83.4531 63.5625 83.5781 63.6875C84.0781 64.125 84.5469 64.375 84.9844 64.4375L85.9219 65.5625C86.2969 67.8125 85.9531 69.5625 84.8906 70.8125C83.7656 72.25 81.8906 72.9688 79.2656 72.9688L77.9531 72.875C77.5156 72.4375 77.2656 72.1562 77.2031 72.0312C76.6406 71.7812 76.1719 71.5625 75.7969 71.375C75.4219 71.25 75.0781 70.9688 74.7656 70.5312C74.6406 70.4062 74.4844 70.3438 74.2969 70.3438C74.1094 70.2812 73.9531 70.1875 73.8281 70.0625C73.2031 69.875 72.7031 69.6562 72.3281 69.4062L71.2969 68.8438C71.3594 68.2188 71.3906 67.7812 71.3906 67.5312C70.8906 66.8438 70.4844 66.0938 70.1719 65.2812C69.9219 64.4688 69.7031 63.625 69.5156 62.75C69.3281 62.0625 69.1406 61.4375 68.9531 60.875C68.8281 60.3125 68.6094 59.8125 68.2969 59.375C68.1719 55 68.5781 51.3438 69.5156 48.4062C70.4531 45.4062 71.4844 42.5 72.6094 39.6875C73.2344 38.1875 73.8281 36.6562 74.3906 35.0938C74.9531 33.5312 75.4531 31.9375 75.8906 30.3125L76.9219 29.2812C77.3594 28.9062 77.6406 28.6875 77.7656 28.625C77.7656 27.8125 77.9219 27.0312 78.2344 26.2812C78.5469 25.4688 78.8906 24.6562 79.2656 23.8438C79.5156 23.3438 79.7344 22.8438 79.9219 22.3438C80.1719 21.8438 80.3281 21.4062 80.3906 21.0312C79.9531 21.0312 79.5469 21.0625 79.1719 21.125C78.8594 21.125 78.5156 21.1562 78.1406 21.2188C77.3281 21.4062 76.5469 21.5 75.7969 21.5C75.2344 21.5 74.8281 21.4688 74.5781 21.4062C74.0781 21.6562 73.6094 21.8125 73.1719 21.875C72.7344 21.875 72.2969 21.875 71.8594 21.875H70.7344H69.6094C68.8594 21.875 68.2656 21.9688 67.8281 22.1562C66.9531 22.1562 66.3906 22.1562 66.1406 22.1562C65.8906 22.1562 65.6094 22.1562 65.2969 22.1562H64.1719H63.0469C62.5469 22.1562 61.9844 22.125 61.3594 22.0625C60.7344 21.9375 60.0781 21.6875 59.3906 21.3125L58.7344 20.5625C58.3594 19.875 58.0156 19.5 57.7031 19.4375L56.6719 19.1562V18.125ZM119.672 24.5938C119.547 23.7812 119.391 23.2812 119.203 23.0938C119.641 21.9688 119.953 20.875 120.141 19.8125C120.391 18.6875 120.578 17.625 120.703 16.625C120.828 15.75 120.953 14.9375 121.078 14.1875C121.266 13.4375 121.484 12.7188 121.734 12.0312C122.797 11.7812 123.578 11.3438 124.078 10.7188C124.641 10.0312 125.078 9.4375 125.391 8.9375C126.516 8.875 127.234 9.03125 127.547 9.40625C127.922 9.78125 128.328 10.4062 128.766 11.2812C129.078 11.9688 129.516 12.7188 130.078 13.5312C130.641 14.2812 131.484 14.875 132.609 15.3125C132.797 16 133.016 16.6562 133.266 17.2812C133.516 17.9062 133.797 18.5625 134.109 19.25C134.672 20.5625 135.203 21.9375 135.703 23.375C136.203 24.75 136.484 26.0625 136.547 27.3125C135.797 28.75 135.203 30.4062 134.766 32.2812C134.391 34.1562 134.141 36.0625 134.016 38C133.953 39.875 134.016 41.6875 134.203 43.4375C134.391 45.1875 134.703 46.6562 135.141 47.8438L135.703 49.3438L137.766 49.1562C140.016 48.5938 142.047 47.9688 143.859 47.2812C145.672 46.5312 147.359 45.6562 148.922 44.6562C150.484 43.6562 151.984 42.5312 153.422 41.2812C154.859 39.9688 156.359 38.4375 157.922 36.6875C159.422 34.9375 160.766 32.9688 161.953 30.7812C163.141 28.5312 164.109 26.2188 164.859 23.8438C165.672 21.4688 166.297 19.0938 166.734 16.7188C167.172 14.3438 167.453 12.125 167.578 10.0625C168.766 9.5 169.422 8.59375 169.547 7.34375L169.266 6.125C169.078 5.8125 168.984 5.53125 168.984 5.28125C169.047 4.96875 169.141 4.6875 169.266 4.4375C169.766 3 170.828 1.9375 172.453 1.25C173.578 2 174.609 2.8125 175.547 3.6875C176.547 4.5625 177.453 5.4375 178.266 6.3125C178.391 8 178.641 9.46875 179.016 10.7188C179.391 11.9062 179.797 13.0625 180.234 14.1875C180.672 15.25 181.047 16.2812 181.359 17.2812C181.734 18.2812 181.984 19.5 182.109 20.9375C181.484 22.8125 181.016 24.5938 180.703 26.2812C180.453 27.9062 180.203 29.625 179.953 31.4375L179.766 32.4688C178.641 34.4062 177.516 36.4062 176.391 38.4688C175.328 40.4688 174.453 42.2188 173.766 43.7188C173.391 44.0938 173.047 44.5312 172.734 45.0312C172.484 45.5312 172.234 46.0312 171.984 46.5312C171.859 46.7188 171.672 47.0312 171.422 47.4688C171.234 47.9062 171.047 48.2188 170.859 48.4062L168.609 47.5625L168.047 50.4688L166.547 50.8438L165.422 52.1562C163.984 54.6562 162.453 56.75 160.828 58.4375C159.266 60.125 157.484 61.625 155.484 62.9375C153.547 64.25 151.328 65.5 148.828 66.6875C146.391 67.8125 143.578 69.0312 140.391 70.3438C139.141 70.1562 138.047 70.0625 137.109 70.0625C136.234 70 135.359 69.9375 134.484 69.875C133.609 69.875 132.766 69.8438 131.953 69.7812C131.141 69.7188 130.203 69.625 129.141 69.5C128.891 68.9375 128.547 68.5312 128.109 68.2812C127.672 68.0312 127.266 67.9062 126.891 67.9062C125.641 67.2812 124.703 66.4062 124.078 65.2812C123.453 64.1562 122.797 62.9062 122.109 61.5312C121.797 60.7812 121.453 60.0312 121.078 59.2812C120.766 58.5312 120.359 57.8125 119.859 57.125L121.734 56.5625L119.297 53.75C119.109 53.5625 118.891 53.375 118.641 53.1875C118.453 53 118.266 52.7812 118.078 52.5312V50.75C117.828 45.625 117.703 40.9062 117.703 36.5938C117.766 32.2188 118.359 28.375 119.484 25.0625L119.672 24.5938ZM188.859 72.0312C187.047 71.5938 185.641 70.875 184.641 69.875C183.703 68.8125 182.984 67.5938 182.484 66.2188C182.047 64.7812 181.734 63.2188 181.547 61.5312C181.422 59.8438 181.266 58.0938 181.078 56.2812C181.328 55.4688 181.641 54.7812 182.016 54.2188C182.453 53.6562 182.641 52.875 182.578 51.875C183.266 49.875 183.891 47.9375 184.453 46.0625C185.016 44.1875 185.391 42.25 185.578 40.25C185.953 39.6875 186.328 39.3125 186.703 39.125C187.203 35.5625 187.266 31.9062 186.891 28.1562C186.516 24.4062 185.891 20.9375 185.016 17.75C185.078 17.0625 185.172 16.5625 185.297 16.25C185.422 15.875 185.422 15.5625 185.297 15.3125C185.172 14.75 185.359 14.4688 185.859 14.4688C186.359 14.4688 186.859 14.4688 187.359 14.4688C187.359 13.3438 187.141 12.25 186.703 11.1875C186.328 10.0625 185.953 8.78125 185.578 7.34375C186.078 6.21875 186.422 5.125 186.609 4.0625C186.797 3 187.141 2.03125 187.641 1.15625C189.641 1.78125 191.609 2.5 193.547 3.3125C195.484 4.125 197.391 4.9375 199.266 5.75C201.141 6.5 202.984 7.25 204.797 8C206.609 8.6875 208.391 9.25 210.141 9.6875C212.828 11.625 215.578 13.5625 218.391 15.5C221.266 17.375 223.859 19.4688 226.172 21.7812C228.547 24.0312 230.516 26.625 232.078 29.5625C233.641 32.5 234.547 35.9688 234.797 39.9688C234.672 40.3438 234.578 40.6562 234.516 40.9062C234.453 41.1562 234.391 41.4062 234.328 41.6562C234.266 41.9062 234.234 42.1875 234.234 42.5C234.234 42.8125 234.234 43.25 234.234 43.8125C231.984 47.75 229.141 51.0625 225.703 53.75C222.266 56.4375 218.516 58.8125 214.453 60.875C210.391 62.9375 206.141 64.8438 201.703 66.5938C197.328 68.2812 193.047 70.0938 188.859 72.0312ZM198.047 18.875C197.484 18.875 197.078 19 196.828 19.25C197.578 22.0625 198.141 24.7188 198.516 27.2188C198.891 29.7188 199.078 32.2188 199.078 34.7188C199.141 37.2188 199.016 39.7812 198.703 42.4062C198.391 45.0312 197.953 47.875 197.391 50.9375C198.203 50.875 198.922 50.7188 199.547 50.4688C200.172 50.2188 200.797 49.9375 201.422 49.625C202.109 49.3125 202.797 49.0312 203.484 48.7812C204.234 48.5312 205.078 48.375 206.016 48.3125C206.266 47.8125 206.578 47.4375 206.953 47.1875C207.391 46.875 207.766 46.5625 208.078 46.25C209.641 45.625 211.203 44.9688 212.766 44.2812C214.328 43.5938 215.766 42.8125 217.078 41.9375C218.391 41.0625 219.578 40.0625 220.641 38.9375C221.703 37.8125 222.578 36.4688 223.266 34.9062C222.766 33.9688 222.141 33.1875 221.391 32.5625C220.703 31.875 219.953 31.2188 219.141 30.5938C218.391 29.9062 217.641 29.2188 216.891 28.5312C216.203 27.7812 215.641 26.9375 215.203 26C214.203 25.875 213.328 25.625 212.578 25.25C211.828 24.8125 211.109 24.4062 210.422 24.0312C209.734 23.5938 208.984 23.1875 208.172 22.8125C207.422 22.4375 206.516 22.2188 205.453 22.1562C203.828 21.2812 202.359 20.6875 201.047 20.375C199.734 20 198.734 19.5 198.047 18.875ZM246.328 74.0938C240.828 73.3438 237.484 70.4375 236.297 65.375L236.391 64.3438C236.641 63.5938 236.922 62.75 237.234 61.8125C237.547 60.75 237.891 59.7188 238.266 58.7188C238.641 57.6562 239.266 56.7188 240.141 55.9062C240.328 55.3438 240.672 54.5 241.172 53.375C241.734 52.1875 242.641 50.4375 243.891 48.125C244.891 46.3125 245.672 44.875 246.234 43.8125C246.859 42.75 247.359 41.9375 247.734 41.375C247.109 40.25 246.234 39.1562 245.109 38.0938C244.109 36.2188 243.234 34.4375 242.484 32.75C241.797 31 241.266 29.4375 240.891 28.0625C240.828 26.5625 240.578 25.0312 240.141 23.4688C239.953 22.6562 239.766 21.8438 239.578 21.0312C239.391 20.2188 239.297 19.375 239.297 18.5C239.047 18.0625 238.828 17.5 238.641 16.8125L238.828 15.6875C239.141 15.1875 239.203 14.5312 239.016 13.7188C238.891 12.8438 238.703 11.9688 238.453 11.0938C238.266 10.2812 238.078 9.4375 237.891 8.5625C237.766 7.625 237.734 6.71875 237.797 5.84375C237.859 4.96875 238.078 4.125 238.453 3.3125C238.891 2.5 239.609 1.8125 240.609 1.25L241.547 0.59375L242.484 1.15625C243.172 1.59375 243.828 1.96875 244.453 2.28125C245.078 2.59375 245.703 2.90625 246.328 3.21875C247.078 3.59375 247.828 4 248.578 4.4375C249.328 4.8125 250.141 5.25 251.016 5.75L251.953 6.40625L251.859 7.4375C251.859 7.5625 251.891 7.71875 251.953 7.90625C252.016 8.09375 252.109 8.25 252.234 8.375L253.266 8.65625L253.359 9.96875V11.0938C253.359 11.6562 253.391 12.0625 253.453 12.3125C253.516 12.5 253.641 12.7188 253.828 12.9688L254.297 14.1875C254.297 15.3125 254.391 16.3125 254.578 17.1875C254.766 18.0625 254.984 18.9375 255.234 19.8125C255.547 20.6875 255.797 21.5938 255.984 22.5312C256.172 23.4062 256.203 24.375 256.078 25.4375C256.453 25.25 256.828 24.9688 257.203 24.5938C257.328 24.4688 257.453 24.3438 257.578 24.2188C257.766 24.0938 257.953 23.9688 258.141 23.8438L264.703 14.9375L264.516 13.8125L266.859 11.5625C267.484 11.0625 268.078 10.5625 268.641 10.0625C269.203 9.5 269.672 8.875 270.047 8.1875L270.609 7.34375C273.422 3.59375 277.047 1.28125 281.484 0.40625L283.078 0.03125L283.547 1.53125C283.859 2.40625 284.453 3.1875 285.328 3.875C286.266 4.5 287.266 5.125 288.328 5.75L289.359 6.40625C289.734 7.15625 289.922 7.71875 289.922 8.09375C289.922 8.46875 289.891 8.78125 289.828 9.03125L290.297 10.25C289.609 12.0625 288.859 13.375 288.047 14.1875C287.234 14.9375 286.391 15.6562 285.516 16.3438C284.828 16.9062 284.203 17.4688 283.641 18.0312C283.078 18.5938 282.641 19.2188 282.328 19.9062L281.578 20.8438C280.016 21.6562 279.016 22.8438 278.578 24.4062L278.203 25.7188H276.797C276.734 25.7188 276.578 25.875 276.328 26.1875C276.078 26.4375 275.703 27.0938 275.203 28.1562C274.641 28.9062 274.234 29.4062 273.984 29.6562C273.797 29.8438 273.641 30 273.516 30.125C273.391 30.4375 273.266 30.7188 273.141 30.9688C273.078 31.2188 272.984 31.5312 272.859 31.9062L272.297 32.6562C271.734 33.1562 271.328 33.6562 271.078 34.1562C270.828 34.5938 270.547 35.125 270.234 35.75C269.984 36.3125 269.703 36.9062 269.391 37.5312C269.078 38.0938 268.641 38.6562 268.078 39.2188L268.266 40.25L267.516 40.9062C267.016 41.3438 266.578 41.9062 266.203 42.5938C265.828 43.2188 265.453 43.875 265.078 44.5625C264.703 45.3125 264.297 46.0625 263.859 46.8125C263.422 47.5625 262.859 48.25 262.172 48.875C261.734 50 261.328 50.875 260.953 51.5C260.641 52.125 260.078 52.875 259.266 53.75C258.516 56.75 256.734 59.9688 253.922 63.4062C253.859 64.0938 253.641 64.7812 253.266 65.4688C252.953 66.0938 252.609 66.6875 252.234 67.25C252.109 67.5 251.953 67.7812 251.766 68.0938C251.641 68.3438 251.547 68.5312 251.484 68.6562L251.203 69.6875C250.828 70.375 250.422 70.9375 249.984 71.375C249.609 71.8125 249.234 72.2188 248.859 72.5938C248.672 72.7188 248.484 72.875 248.297 73.0625C248.172 73.25 248.047 73.4062 247.922 73.5312L246.328 74.0938ZM50.5312 165.719C47.9062 164.656 45.7188 163.156 43.9688 161.219C42.2812 159.281 40.9062 157 39.8438 154.375C40.4688 152.688 41.4688 151.281 42.8438 150.156C44.2188 148.969 45.75 147.969 47.4375 147.156C49.1875 146.344 51.0312 145.688 52.9688 145.188C54.9062 144.688 56.7812 144.25 58.5938 143.875C58.9688 144 59.1562 144 59.1562 143.875C59.1562 143.75 59.3125 143.812 59.625 144.062C61.875 143.375 64.4688 142.719 67.4062 142.094C70.3438 141.406 73.4688 141.156 76.7812 141.344C77.2188 141.094 77.75 140.969 78.375 140.969C79 140.906 79.6562 140.875 80.3438 140.875C81.0312 140.875 81.6875 140.875 82.3125 140.875C82.9375 140.812 83.4688 140.688 83.9062 140.5C84.2812 140.938 84.8438 141.219 85.5938 141.344C86.3438 141.406 87.125 141.719 87.9375 142.281C88.1875 142.344 88.1875 142.25 87.9375 142C87.6875 141.688 87.7188 141.469 88.0312 141.344C88.8438 141.344 89.5625 141.531 90.1875 141.906C90.8125 142.281 91.375 142.719 91.875 143.219C92.4375 143.656 92.9375 144.062 93.375 144.438C93.875 144.812 94.4062 145 94.9688 145C95.5312 145.688 96.1875 146.344 96.9375 146.969C97.75 147.531 98.5 148.125 99.1875 148.75C99.9375 149.375 100.531 150.062 100.969 150.812C101.469 151.562 101.719 152.406 101.719 153.344C101.656 153.719 101.781 153.938 102.094 154C102.406 154.062 102.625 154.25 102.75 154.562C102.812 156.875 102.438 158.875 101.625 160.562C100.875 162.25 99.9062 163.812 98.7188 165.25C97.5312 166.625 96.25 167.938 94.875 169.188C93.5625 170.438 92.3438 171.781 91.2188 173.219C91.9688 174.156 92.8125 175.031 93.75 175.844C94.75 176.594 95.75 177.344 96.75 178.094C97.75 178.844 98.6875 179.656 99.5625 180.531C100.5 181.344 101.281 182.281 101.906 183.344C102.094 183.719 102.5 183.969 103.125 184.094C103.312 184.844 103.562 185.625 103.875 186.438C104.25 187.188 104.594 187.938 104.906 188.688C105.219 189.375 105.406 190 105.469 190.562C105.531 191.125 105.375 191.594 105 191.969C105.438 192.219 105.688 192.625 105.75 193.188C105.812 193.688 105.812 194.094 105.75 194.406C104.375 196.094 103.438 197.281 102.938 197.969C102.438 198.656 102.062 199.156 101.812 199.469C101.562 199.781 101.312 200.062 101.062 200.312C100.812 200.562 100.25 201.062 99.375 201.812C96.0625 203.812 92.5938 205.625 88.9688 207.25C85.4062 208.812 81.6875 209.875 77.8125 210.438C77.5 210.875 77.0312 211.219 76.4062 211.469C75.8438 211.781 75.1875 212.031 74.4375 212.219C73.6875 212.406 72.875 212.562 72 212.688C71.1875 212.812 70.4375 212.938 69.75 213.062C69.4375 212.938 69.25 212.719 69.1875 212.406C69.1875 212.156 69.0312 211.969 68.7188 211.844C68.6562 212.594 68.3125 212.969 67.6875 212.969C67.125 213.031 66.4062 212.906 65.5312 212.594C64.6562 212.281 63.75 211.844 62.8125 211.281C61.875 210.719 61.0625 210.188 60.375 209.688C60.0625 210.25 59.6562 210.844 59.1562 211.469C58.7188 212.094 58.25 212.531 57.75 212.781C56.875 212.656 56.2188 212.562 55.7812 212.5C55.4062 212.438 55.0312 212.594 54.6562 212.969C54.1562 212.719 53.7812 212.438 53.5312 212.125C53.2812 211.875 53.0312 211.594 52.7812 211.281C52.5312 211.031 52.25 210.812 51.9375 210.625C51.625 210.375 51.1562 210.156 50.5312 209.969C50.6562 209.656 50.5625 209.188 50.25 208.562C49.9375 207.875 49.5 207.469 48.9375 207.344C49.25 206.844 49.125 206.219 48.5625 205.469C48 204.656 47.5625 203.75 47.25 202.75C47.3125 202.312 47.3438 201.875 47.3438 201.438C47.4062 200.938 47.4688 200.5 47.5312 200.125C47.6562 199.688 47.8125 199.312 48 199C48.1875 198.688 48.5 198.469 48.9375 198.344C48.875 197.531 48.625 196.75 48.1875 196C48.75 195.562 49.125 195.031 49.3125 194.406C49.5 193.719 49.6562 193.031 49.7812 192.344C49.9688 191.656 50.1875 191 50.4375 190.375C50.6875 189.688 51.0938 189.125 51.6562 188.688C51.5312 188.5 51.4062 188.344 51.2812 188.219C51.1562 188.094 51.0938 187.875 51.0938 187.562C52.0312 186 52.6875 184.688 53.0625 183.625C53.4375 182.5 53.7188 181.438 53.9062 180.438C54.1562 179.375 54.4062 178.25 54.6562 177.062C54.9062 175.875 55.4062 174.375 56.1562 172.562C56.0938 171.438 56.2188 170.438 56.5312 169.562C56.8438 168.688 57.1562 167.844 57.4688 167.031C57.8438 166.156 58.125 165.25 58.3125 164.312C58.5 163.375 58.4688 162.281 58.2188 161.031C57.1562 161.156 56.375 161.531 55.875 162.156C55.4375 162.781 55.1562 163.625 55.0312 164.688C54.4688 165.188 53.75 165.438 52.875 165.438C52 165.375 51.2188 165.469 50.5312 165.719ZM91.7812 183.812C89.4062 182.5 87.2188 181.719 85.2188 181.469C83.2812 181.219 81.4062 181.25 79.5938 181.562C77.8438 181.812 76.1562 182.188 74.5312 182.688C72.9062 183.188 71.2812 183.562 69.6562 183.812C68.8438 185.938 68 188.281 67.125 190.844C66.25 193.406 65.4062 195.906 64.5938 198.344C66.8438 198.031 68.9062 197.562 70.7812 196.938C72.6562 196.312 74.4688 195.625 76.2188 194.875C77.9688 194.062 79.6875 193.281 81.375 192.531C83.0625 191.719 84.8125 190.969 86.625 190.281C86.8125 189.531 87.2188 188.938 87.8438 188.5C88.4688 188.062 89.0938 187.656 89.7188 187.281C90.3438 186.844 90.875 186.375 91.3125 185.875C91.75 185.375 91.9062 184.688 91.7812 183.812ZM85.2188 154.469C81.3438 154.344 77.5312 154.688 73.7812 155.5C70.0312 156.312 66.875 157.5 64.3125 159.062C65.5625 160.125 66.8438 161.062 68.1562 161.875C69.5312 162.688 70.5625 163.781 71.25 165.156C74.25 163.969 76.875 162.469 79.125 160.656C81.375 158.781 83.4062 156.719 85.2188 154.469ZM106.219 202.094L107.438 201.156L107.531 199.188C109.094 195.375 110.688 191.719 112.312 188.219C114 184.719 115.75 181.125 117.562 177.438C118.125 176.25 118.688 175.062 119.25 173.875C119.875 172.688 120.469 171.469 121.031 170.219C120.969 169.969 120.938 169.719 120.938 169.469C120.938 169.156 121 168.812 121.125 168.438C122 167.188 122.688 166.062 123.188 165.062C123.75 164.062 124.281 163.031 124.781 161.969C125.344 160.719 125.938 159.469 126.562 158.219C127.25 156.969 128.094 155.75 129.094 154.562L129.75 153.625L130.781 153.719C131.031 153.594 131.281 153.5 131.531 153.438C131.844 153.312 132.219 153.25 132.656 153.25L134.344 153.531C136.406 152.594 138.219 151.25 139.781 149.5C141.406 147.688 143.031 145.531 144.656 143.031L145.781 141.438L147.281 142.375C147.594 142.562 148.094 142.75 148.781 142.938C149.469 143.125 150.188 143.344 150.938 143.594C152.25 143.906 153.531 144.281 154.781 144.719C156.031 145.094 157 145.625 157.688 146.312L158.156 147.156C158.281 147.844 158.375 148.469 158.438 149.031C158.562 149.594 158.688 150.156 158.812 150.719C159.062 152.031 159.281 153.344 159.469 154.656C159.656 155.906 159.781 157.312 159.844 158.875C160.156 160.125 160.438 161.406 160.688 162.719C161 163.969 161.281 165.219 161.531 166.469C161.844 168.281 162.188 170.031 162.562 171.719C162.938 173.344 163.438 174.906 164.062 176.406C164.688 176.406 165.062 176.438 165.188 176.5C165.938 176.188 166.812 176 167.812 175.938L169.031 175.844L169.406 176.969C169.531 177.156 169.688 177.344 169.875 177.531C170.062 177.719 170.281 177.906 170.531 178.094C171.531 178.156 172.25 178.375 172.688 178.75C173.188 179.062 173.594 179.375 173.906 179.688C174.031 179.812 174.188 179.969 174.375 180.156C174.562 180.281 174.719 180.375 174.844 180.438L176.531 181.094L175.594 182.875C174.906 184.188 173.844 185.469 172.406 186.719C171.031 187.969 169.469 189 167.719 189.812C167.844 190.25 167.906 190.656 167.906 191.031C167.969 191.406 168.062 191.844 168.188 192.344C168.438 193.594 168.625 194.906 168.75 196.281C168.938 197.594 168.938 198.969 168.75 200.406C168.125 202.031 167.375 203.5 166.5 204.812C165.688 206.062 164.688 207.219 163.5 208.281C162.375 209.281 161.094 210.125 159.656 210.812C158.219 211.438 156.719 211.781 155.156 211.844C154.281 211.656 153.625 211.438 153.188 211.188C152.812 210.938 152.469 210.688 152.156 210.438C151.656 210.062 151.25 209.812 150.938 209.688L149.719 209.125L150.094 207.719C150.281 207.219 150.25 206.781 150 206.406C149.812 206.031 149.375 205.531 148.688 204.906C148.438 204.719 148.219 204.531 148.031 204.344C147.844 204.094 147.625 203.844 147.375 203.594L145.5 201.438L148.594 200.594C150.469 200.094 151.719 199.469 152.344 198.719C152.969 197.906 153.219 196.5 153.094 194.5C151.531 194.188 150.25 194.156 149.25 194.406C148.25 194.594 147.25 194.812 146.25 195.062C144.812 195.438 143.406 195.781 142.031 196.094C140.656 196.344 139.156 196.469 137.531 196.469C136.469 196.469 135.344 196.375 134.156 196.188L133.125 196.094L132.844 195.062C132.844 194.938 132.75 194.812 132.562 194.688C132.438 194.5 132.312 194.344 132.188 194.219C131.875 193.844 131.5 193.344 131.062 192.719C130.625 192.094 130.531 191.312 130.781 190.375C130.344 189.688 130.094 188.969 130.031 188.219C129.781 188.719 129.562 189.219 129.375 189.719C129.25 190.156 129.125 190.594 129 191.031L128.625 192.25L127.406 192.438C127.281 192.562 127.156 192.75 127.031 193C126.969 193.25 126.969 193.438 127.031 193.562L127.406 194.594L126.469 195.438C126.344 195.625 126.188 195.781 126 195.906C125.812 196.031 125.656 196.156 125.531 196.281C125.406 196.969 125.219 197.625 124.969 198.25C124.781 198.875 124.562 199.5 124.312 200.125C124 201.125 123.688 202.094 123.375 203.031C123.125 203.969 123 204.906 123 205.844L122.625 207.062C122.312 207.562 121.906 207.938 121.406 208.188C120.969 208.438 120.531 208.656 120.094 208.844C119.469 209.094 119.031 209.344 118.781 209.594L118.5 210.812L117.094 211C116.281 211.188 115.688 211.312 115.312 211.375C115 211.438 114.625 211.469 114.188 211.469L112.969 211.375C112.219 210.625 111.594 210.062 111.094 209.688C110.656 209.25 110.125 208.875 109.5 208.562L108.938 207.812C108.688 207.312 108.531 206.875 108.469 206.5C108.406 206.062 108.312 205.625 108.188 205.188C108.062 204.375 107.875 203.812 107.625 203.5L106.219 202.094ZM136.125 177.719C135.25 178.969 134.406 180.281 133.594 181.656C134.031 181.594 134.438 181.562 134.812 181.562C135.25 181.562 135.688 181.531 136.125 181.469C138.312 181.344 140.344 181.188 142.219 181C144.094 180.812 146.125 180.5 148.312 180.062C147.812 177.75 147.25 175.406 146.625 173.031C146.062 170.594 145.438 168.156 144.75 165.719L144.281 166.656C142.719 168.344 141.219 170.156 139.781 172.094C138.344 174.031 137.156 175.875 136.219 177.625L136.125 177.719ZM181.312 207.812C180.812 207.312 180.438 206.719 180.188 206.031C180 205.344 179.5 204.781 178.688 204.344C178.562 203.406 178.375 202.344 178.125 201.156C177.938 199.906 177.719 198.656 177.469 197.406C177.281 196.094 177.125 194.812 177 193.562C176.938 192.25 177 191.062 177.188 190C177.312 189.438 177.5 188.906 177.75 188.406C178.062 187.906 178.344 187.438 178.594 187C178.906 186.5 179.125 186 179.25 185.5C179.438 185 179.469 184.5 179.344 184C179.719 183.938 179.938 183.75 180 183.438C180.125 183.062 180.438 182.938 180.938 183.062C181.375 181.688 181.844 180.406 182.344 179.219C182.844 178.031 183.375 176.875 183.938 175.75C184.5 174.625 185.062 173.5 185.625 172.375C186.25 171.188 186.812 169.875 187.312 168.438C186.25 167.438 185.469 166.375 184.969 165.25C184.531 164.062 184.188 162.875 183.938 161.688C183.688 160.5 183.5 159.312 183.375 158.125C183.25 156.875 183 155.625 182.625 154.375C183.375 153.25 184.281 152.344 185.344 151.656C186.406 150.906 187.562 150.312 188.812 149.875C190.125 149.375 191.531 149 193.031 148.75C194.531 148.438 196.125 148.094 197.812 147.719C200.812 146.781 203.5 146.062 205.875 145.562C208.25 145 210.562 144.562 212.812 144.25C215.062 143.875 217.406 143.562 219.844 143.312C222.281 143 225.094 142.562 228.281 142C228.344 142.188 228.438 142.281 228.562 142.281C228.75 142.281 228.969 142.281 229.219 142.281C229.406 142.719 229.75 142.938 230.25 142.938C230.25 142.75 230.219 142.594 230.156 142.469C230.156 142.281 230.156 142.125 230.156 142C230.281 142 230.438 142.031 230.625 142.094C230.875 142.156 231.062 142.219 231.188 142.281C231.375 142.344 231.531 142.344 231.656 142.281C231.781 142.156 231.812 141.938 231.75 141.625C232.5 142.938 233.469 144.031 234.656 144.906C235.844 145.719 237.156 146.438 238.594 147.062C238.656 147.625 238.656 148.031 238.594 148.281C238.594 148.531 238.562 148.781 238.5 149.031C238.438 149.219 238.406 149.469 238.406 149.781C238.406 150.031 238.469 150.406 238.594 150.906C237.594 152.594 236.438 153.906 235.125 154.844C233.875 155.781 232.531 156.5 231.094 157C229.656 157.5 228.125 157.875 226.5 158.125C224.938 158.375 223.312 158.656 221.625 158.969C220 159.219 218.344 159.594 216.656 160.094C214.969 160.594 213.312 161.344 211.688 162.344C211.188 162.156 210.719 162.094 210.281 162.156C209.906 162.156 209.5 162.219 209.062 162.344C208.625 162.469 208.125 162.594 207.562 162.719C207.062 162.844 206.438 162.844 205.688 162.719C205.188 163.156 204.594 163.469 203.906 163.656C203.281 163.844 202.625 164.031 201.938 164.219C202.25 164.906 202.375 165.594 202.312 166.281C202.312 166.969 202.406 167.562 202.594 168.062C205.219 168.312 208.125 168.312 211.312 168.062C214.5 167.75 217.625 167.531 220.688 167.406C220.75 167.719 220.719 167.938 220.594 168.062C220.469 168.188 220.406 168.406 220.406 168.719C220.969 169.094 221.5 169.562 222 170.125C222.5 170.688 223 171.25 223.5 171.812C224.062 172.312 224.625 172.75 225.188 173.125C225.75 173.438 226.406 173.562 227.156 173.5C227.469 174.125 227.688 174.781 227.812 175.469C227.938 176.156 227.844 176.875 227.531 177.625C226.281 178.438 225.062 179.281 223.875 180.156C222.688 180.969 221.438 181.719 220.125 182.406C218.875 183.094 217.5 183.656 216 184.094C214.5 184.531 212.875 184.719 211.125 184.656C210.812 184.656 210.531 184.656 210.281 184.656C210.094 184.656 209.844 184.531 209.531 184.281C208.906 184.594 208.062 184.719 207 184.656C206 184.531 205.156 184.625 204.469 184.938C203.594 184.625 202.562 184.469 201.375 184.469C200.25 184.469 199.25 184.312 198.375 184C197.25 185.625 196.188 187.344 195.188 189.156C194.188 190.906 193.312 192.781 192.562 194.781C195.125 195.156 197.25 195.312 198.938 195.25C200.625 195.188 202.219 195.062 203.719 194.875C205.219 194.688 206.75 194.5 208.312 194.312C209.938 194.125 211.906 194.062 214.219 194.125C215.781 193.375 217.562 192.875 219.562 192.625C221.625 192.312 223.531 191.875 225.281 191.312C225.906 191.5 226.438 191.875 226.875 192.438C227.312 192.938 227.719 193.469 228.094 194.031C228.531 194.531 228.969 194.969 229.406 195.344C229.844 195.719 230.406 195.844 231.094 195.719C231.406 196.031 231.594 196.406 231.656 196.844C231.781 197.281 231.875 197.688 231.938 198.062C232.062 198.438 232.219 198.75 232.406 199C232.594 199.188 232.938 199.25 233.438 199.188C232.25 201.625 230.906 203.5 229.406 204.812C227.969 206.125 226.312 207.156 224.438 207.906C222.625 208.594 220.562 209.125 218.25 209.5C216 209.812 213.469 210.219 210.656 210.719C209.969 210.844 209.375 210.844 208.875 210.719C208.438 210.531 207.969 210.438 207.469 210.438C205.719 210.75 203.625 211.062 201.188 211.375C198.812 211.688 196.406 211.812 193.969 211.75C191.531 211.688 189.188 211.375 186.938 210.812C184.688 210.25 182.812 209.25 181.312 207.812Z" fill="white" fill-opacity="0.85"/>
</svg>
