<svg width="160" height="24" viewBox="0 0 160 24" fill="none" xmlns="http://www.w3.org/2000/svg">
<path d="M0.28125 9.78711C0.339844 9.49414 0.378906 9.25977 0.398438 9.08398C0.417969 8.88867 0.349609 8.68359 0.193359 8.46875C0.271484 8.15625 0.330078 7.91211 0.369141 7.73633C0.427734 7.56055 0.4375 7.31641 0.398438 7.00391C0.574219 6.49609 0.837891 6.06641 1.18945 5.71484C1.56055 5.36328 1.96094 5.07031 2.39062 4.83594C2.82031 4.58203 3.26953 4.37695 3.73828 4.2207C4.20703 4.04492 4.64648 3.89844 5.05664 3.78125C5.05664 3.70313 5.01758 3.66406 4.93945 3.66406C4.86133 3.66406 4.8418 3.61523 4.88086 3.51758C5.93555 3.32227 6.99023 3.03906 8.04492 2.66797C9.11914 2.29688 10.2129 1.96484 11.3262 1.67188C12.4395 1.37891 13.582 1.20312 14.7539 1.14453C15.9258 1.06641 17.1562 1.21289 18.4453 1.58398C18.5234 1.81836 18.6309 2.04297 18.7676 2.25781C18.9043 2.47266 19.041 2.6875 19.1777 2.90234C19.334 3.09766 19.4707 3.29297 19.5879 3.48828C19.7051 3.68359 19.7734 3.88867 19.793 4.10352C20.0273 4.31836 20.2129 4.55273 20.3496 4.80664C20.5059 5.04102 20.5352 5.36328 20.4375 5.77344C20.2227 5.92969 19.998 6.08594 19.7637 6.24219C19.5293 6.39844 19.2852 6.54492 19.0312 6.68164C18.1523 6.4668 17.2734 6.38867 16.3945 6.44727C15.5156 6.50586 14.7246 6.57422 14.0215 6.65234C13.8066 6.41797 13.5527 6.31055 13.2598 6.33008C12.9668 6.33008 12.6543 6.37891 12.3223 6.47656C12.0098 6.55469 11.6973 6.64258 11.3848 6.74023C11.0723 6.81836 10.7793 6.83789 10.5059 6.79883C10.291 6.99414 10.0078 7.13086 9.65625 7.20898C9.30469 7.26758 8.93359 7.31641 8.54297 7.35547C8.52344 7.45312 8.54297 7.52148 8.60156 7.56055C8.66016 7.59961 8.66992 7.67773 8.63086 7.79492C8.76758 7.9707 8.95312 8.09766 9.1875 8.17578C9.42188 8.23438 9.65625 8.29297 9.89062 8.35156C10.1445 8.41016 10.3691 8.49805 10.5645 8.61523C10.7598 8.71289 10.8867 8.87891 10.9453 9.11328C11.2969 9.13281 11.5996 9.23047 11.8535 9.40625C12.1074 9.5625 12.3223 9.75781 12.498 9.99219C12.6738 10.2266 12.8008 10.4805 12.8789 10.7539C12.957 11.0078 12.9863 11.2422 12.9668 11.457C13.0449 11.6523 13.123 11.7305 13.2012 11.6914C13.2988 11.6523 13.4062 11.7012 13.5234 11.8379C13.6016 12.1309 13.7773 12.4434 14.0508 12.7754C14.3438 13.0879 14.5684 13.4297 14.7246 13.8008C14.7637 14.3867 14.793 14.9141 14.8125 15.3828C14.8516 15.8516 14.7734 16.3105 14.5781 16.7598C14.2461 17.6191 13.7676 18.3906 13.1426 19.0742C12.5176 19.7578 11.8047 20.3633 11.0039 20.8906C10.2227 21.3984 9.39258 21.8477 8.51367 22.2383C7.63477 22.6094 6.76562 22.9219 5.90625 23.1758C5.82812 23.1562 5.73047 23.1562 5.61328 23.1758C5.51562 23.1953 5.49609 23.1367 5.55469 23C5.37891 23.1562 5.17383 23.2539 4.93945 23.293C4.72461 23.332 4.48047 23.3418 4.20703 23.3223C3.95312 23.3223 3.68945 23.3125 3.41602 23.293C3.16211 23.2734 2.9082 23.2832 2.6543 23.3223C2.49805 23.166 2.35156 23.0098 2.21484 22.8535C2.09766 22.6973 2 22.5117 1.92188 22.2969C1.82422 22.2773 1.77539 22.2188 1.77539 22.1211C1.79492 22.0039 1.75586 21.9453 1.6582 21.9453C1.6582 21.8672 1.66797 21.8086 1.6875 21.7695C1.70703 21.7305 1.72656 21.6914 1.74609 21.6523C1.82422 21.5938 1.85352 21.5547 1.83398 21.5352C1.83398 21.4961 1.80469 21.4668 1.74609 21.4473C1.70703 21.4082 1.6582 21.3691 1.59961 21.3301C1.56055 21.291 1.55078 21.2422 1.57031 21.1836C1.66797 21.0078 1.69727 20.8027 1.6582 20.5684C1.63867 20.3145 1.61914 20.0605 1.59961 19.8066C1.58008 19.5527 1.59961 19.3184 1.6582 19.1035C1.7168 18.8691 1.88281 18.6738 2.15625 18.5176C2.95703 18.5957 3.70898 18.5566 4.41211 18.4004C5.13477 18.2441 5.80859 18.0293 6.43359 17.7559C7.07812 17.4824 7.68359 17.1895 8.25 16.877C8.83594 16.5449 9.40234 16.2422 9.94922 15.9688C10.0078 15.7734 10.0957 15.6074 10.2129 15.4707C10.3496 15.334 10.4863 15.207 10.623 15.0898C10.7598 14.9531 10.8867 14.8164 11.0039 14.6797C11.1211 14.5234 11.209 14.3379 11.2676 14.123C11.2871 14.0449 11.2871 13.9863 11.2676 13.9473C11.248 13.9082 11.2188 13.8789 11.1797 13.8594C11.1406 13.8203 11.1016 13.7812 11.0625 13.7422C11.0234 13.7031 11.0039 13.6445 11.0039 13.5664C10.9453 13.5469 10.8867 13.5273 10.8281 13.5078C10.7891 13.4883 10.75 13.4785 10.7109 13.4785C10.2031 13.2246 9.66602 13.0098 9.09961 12.834C8.5332 12.6582 8.05469 12.4629 7.66406 12.248C7.42969 12.4043 7.19531 12.4434 6.96094 12.3652C6.72656 12.2871 6.44336 12.209 6.11133 12.1309C5.29102 12.0918 4.50977 12.0137 3.76758 11.8965C3.04492 11.7793 2.3418 11.5742 1.6582 11.2812C1.61914 11.1641 1.57031 11.0664 1.51172 10.9883C1.45312 10.8906 1.31641 10.8613 1.10156 10.9004C0.964844 10.7051 0.818359 10.5293 0.662109 10.373C0.525391 10.1973 0.398438 10.002 0.28125 9.78711ZM17.8301 6.47656C17.8105 6.32031 17.7715 6.18359 17.7129 6.06641C17.6738 5.92969 17.625 5.7832 17.5664 5.62695C17.4688 5.39258 17.3809 5.13867 17.3027 4.86523C17.2246 4.5918 17.1855 4.26953 17.1855 3.89844C17.2246 3.70313 17.2734 3.56641 17.332 3.48828C17.3906 3.39062 17.4492 3.3125 17.5078 3.25391L17.625 2.72656H18.0645C18.2207 2.74609 18.377 2.75586 18.5332 2.75586C18.709 2.75586 18.875 2.75586 19.0312 2.75586C19.7734 2.75586 20.5352 2.72656 21.3164 2.66797C22.0977 2.60938 22.8984 2.54102 23.7188 2.46289C24.6172 2.3457 25.584 2.25781 26.6191 2.19922C26.7168 1.98437 26.7754 1.84766 26.7949 1.78906C26.834 1.73047 26.873 1.66211 26.9121 1.58398L27.2344 1.4082C27.6836 1.38867 27.9961 1.44727 28.1719 1.58398C28.3477 1.70117 28.4844 1.81836 28.582 1.93555C29.0898 1.89648 29.6074 1.84766 30.1348 1.78906C30.6621 1.71094 31.209 1.63281 31.7754 1.55469C32.5566 1.45703 33.3477 1.35938 34.1484 1.26172C34.9492 1.16406 35.7305 1.11523 36.4922 1.11523C36.8242 1.11523 37.1367 1.125 37.4297 1.14453C37.7227 1.16406 38.0059 1.19336 38.2793 1.23242L38.6309 1.49609C38.709 1.63281 38.8066 1.75977 38.9238 1.87695C39.041 1.99414 39.1777 2.11133 39.334 2.22852C39.627 2.46289 39.9102 2.75586 40.1836 3.10742C40.4766 3.45898 40.584 3.97656 40.5059 4.66016L40.3594 4.95312C40.2812 5.03125 40.1836 5.10938 40.0664 5.1875L39.7734 5.56836H39.4512C39.2559 5.56836 39.1094 5.58789 39.0117 5.62695C38.9141 5.64648 38.7969 5.68555 38.6602 5.74414C38.582 5.7832 38.4941 5.82227 38.3965 5.86133C38.2988 5.88086 38.1914 5.91016 38.0742 5.94922C37.8594 5.92969 37.6934 5.91992 37.5762 5.91992C37.459 5.91992 37.3223 5.91992 37.166 5.91992C36.5801 5.91992 35.9453 5.95898 35.2617 6.03711C34.5781 6.11523 33.9141 6.20312 33.2695 6.30078C32.8008 6.35938 32.3516 6.41797 31.9219 6.47656C31.4922 6.51562 31.1016 6.55469 30.75 6.59375C30.5547 7.10156 30.3789 7.55078 30.2227 7.94141C30.0664 8.33203 29.9004 8.72266 29.7246 9.11328C29.5488 9.50391 29.3828 9.9043 29.2266 10.3145C29.0703 10.7051 28.9238 11.1445 28.7871 11.6328C28.5527 11.9844 28.3574 12.3262 28.2012 12.6582C28.0449 12.9707 27.918 13.332 27.8203 13.7422C27.5273 14.0742 27.3125 14.4355 27.1758 14.8262C27.0586 15.2168 26.9512 15.5488 26.8535 15.8223L26.7363 16.2617C26.5996 16.3984 26.5117 16.5059 26.4727 16.584C26.4531 16.6621 26.4043 16.75 26.3262 16.8477C26.2676 17.1016 26.1895 17.3457 26.0918 17.5801C26.0527 17.6777 26.0137 17.7852 25.9746 17.9023C25.9355 18 25.9258 18.0781 25.9453 18.1367C25.9062 18.3516 25.8477 18.5176 25.7695 18.6348C25.7695 18.752 25.7598 18.8691 25.7402 18.9863C25.7207 19.1035 25.7012 19.2207 25.6816 19.3379C25.6426 19.4746 25.6133 19.6016 25.5938 19.7188C25.5742 19.8164 25.584 19.9141 25.623 20.0117C25.6816 20.0898 25.7402 20.168 25.7988 20.2461C25.8574 20.3242 25.9062 20.4219 25.9453 20.5391C25.9844 20.5781 26.0332 20.6074 26.0918 20.627C26.1504 20.6465 26.1992 20.6758 26.2383 20.7148C26.3945 20.8516 26.541 20.9297 26.6777 20.9492L26.9707 21.3008C27.0879 22.0039 26.9805 22.5508 26.6484 22.9414C26.2969 23.3906 25.7109 23.6152 24.8906 23.6152L24.4805 23.5859C24.3438 23.4492 24.2656 23.3613 24.2461 23.3223C24.0703 23.2441 23.9238 23.1758 23.8066 23.1172C23.6895 23.0781 23.582 22.9902 23.4844 22.8535C23.4453 22.8145 23.3965 22.7949 23.3379 22.7949C23.2793 22.7754 23.2305 22.7461 23.1914 22.707C22.9961 22.6484 22.8398 22.5801 22.7227 22.502L22.4004 22.3262C22.4199 22.1309 22.4297 21.9941 22.4297 21.916C22.2734 21.7012 22.1465 21.4668 22.0488 21.2129C21.9707 20.959 21.9023 20.6953 21.8438 20.4219C21.7852 20.207 21.7266 20.0117 21.668 19.8359C21.6289 19.6602 21.5605 19.5039 21.4629 19.3672C21.4238 18 21.5508 16.8574 21.8438 15.9395C22.1367 15.002 22.459 14.0938 22.8105 13.2148C23.0059 12.7461 23.1914 12.2676 23.3672 11.7793C23.543 11.291 23.6992 10.793 23.8359 10.2852L24.1582 9.96289C24.2949 9.8457 24.3828 9.77734 24.4219 9.75781C24.4219 9.50391 24.4707 9.25977 24.5684 9.02539C24.666 8.77148 24.7734 8.51758 24.8906 8.26367C24.9688 8.10742 25.0371 7.95117 25.0957 7.79492C25.1738 7.63867 25.2227 7.50195 25.2422 7.38477C25.1055 7.38477 24.9785 7.39453 24.8613 7.41406C24.7637 7.41406 24.6562 7.42383 24.5391 7.44336C24.2852 7.50195 24.041 7.53125 23.8066 7.53125C23.6309 7.53125 23.5039 7.52148 23.4258 7.50195C23.2695 7.58008 23.123 7.62891 22.9863 7.64844C22.8496 7.64844 22.7129 7.64844 22.5762 7.64844H22.2246H21.873C21.6387 7.64844 21.4531 7.67773 21.3164 7.73633C21.043 7.73633 20.8672 7.73633 20.7891 7.73633C20.7109 7.73633 20.623 7.73633 20.5254 7.73633H20.1738H19.8223C19.666 7.73633 19.4902 7.72656 19.2949 7.70703C19.0996 7.66797 18.8945 7.58984 18.6797 7.47266L18.4746 7.23828C18.3574 7.02344 18.25 6.90625 18.1523 6.88672L17.8301 6.79883V6.47656ZM37.5176 8.49805C37.4785 8.24414 37.4297 8.08789 37.3711 8.0293C37.5078 7.67773 37.6055 7.33594 37.6641 7.00391C37.7422 6.65234 37.8008 6.32031 37.8398 6.00781C37.8789 5.73438 37.918 5.48047 37.957 5.24609C38.0156 5.01172 38.084 4.78711 38.1621 4.57227C38.4941 4.49414 38.7383 4.35742 38.8945 4.16211C39.0703 3.94727 39.207 3.76172 39.3047 3.60547C39.6562 3.58594 39.8809 3.63477 39.9785 3.75195C40.0957 3.86914 40.2227 4.06445 40.3594 4.33789C40.457 4.55273 40.5938 4.78711 40.7695 5.04102C40.9453 5.27539 41.209 5.46094 41.5605 5.59766C41.6191 5.8125 41.6875 6.01758 41.7656 6.21289C41.8438 6.4082 41.9316 6.61328 42.0293 6.82812C42.2051 7.23828 42.3711 7.66797 42.5273 8.11719C42.6836 8.54688 42.7715 8.95703 42.791 9.34766C42.5566 9.79688 42.3711 10.3145 42.2344 10.9004C42.1172 11.4863 42.0391 12.082 42 12.6875C41.9805 13.2734 42 13.8398 42.0586 14.3867C42.1172 14.9336 42.2148 15.3926 42.3516 15.7637L42.5273 16.2324L43.1719 16.1738C43.875 15.998 44.5098 15.8027 45.0762 15.5879C45.6426 15.3535 46.1699 15.0801 46.6582 14.7676C47.1465 14.4551 47.6152 14.1035 48.0645 13.7129C48.5137 13.3027 48.9824 12.8242 49.4707 12.2773C49.9395 11.7305 50.3594 11.1152 50.7305 10.4316C51.1016 9.72852 51.4043 9.00586 51.6387 8.26367C51.8926 7.52148 52.0879 6.7793 52.2246 6.03711C52.3613 5.29492 52.4492 4.60156 52.4883 3.95703C52.8594 3.78125 53.0645 3.49805 53.1035 3.10742L53.0156 2.72656C52.957 2.62891 52.9277 2.54102 52.9277 2.46289C52.9473 2.36523 52.9766 2.27734 53.0156 2.19922C53.1719 1.75 53.5039 1.41797 54.0117 1.20312C54.3633 1.4375 54.6855 1.69141 54.9785 1.96484C55.291 2.23828 55.5742 2.51172 55.8281 2.78516C55.8672 3.3125 55.9453 3.77148 56.0625 4.16211C56.1797 4.5332 56.3066 4.89453 56.4434 5.24609C56.5801 5.57812 56.6973 5.90039 56.7949 6.21289C56.9121 6.52539 56.9902 6.90625 57.0293 7.35547C56.834 7.94141 56.6875 8.49805 56.5898 9.02539C56.5117 9.5332 56.4336 10.0703 56.3555 10.6367L56.2969 10.959C55.9453 11.5645 55.5938 12.1895 55.2422 12.834C54.9102 13.459 54.6367 14.0059 54.4219 14.4746C54.3047 14.5918 54.1973 14.7285 54.0996 14.8848C54.0215 15.041 53.9434 15.1973 53.8652 15.3535C53.8262 15.4121 53.7676 15.5098 53.6895 15.6465C53.6309 15.7832 53.5723 15.8809 53.5137 15.9395L52.8105 15.6758L52.6348 16.584L52.166 16.7012L51.8145 17.1113C51.3652 17.8926 50.8867 18.5469 50.3789 19.0742C49.8906 19.6016 49.334 20.0703 48.709 20.4805C48.1035 20.8906 47.4102 21.2812 46.6289 21.6523C45.8672 22.0039 44.9883 22.3848 43.9922 22.7949C43.6016 22.7363 43.2598 22.707 42.9668 22.707C42.6934 22.6875 42.4199 22.668 42.1465 22.6484C41.873 22.6484 41.6094 22.6387 41.3555 22.6191C41.1016 22.5996 40.8086 22.5703 40.4766 22.5312C40.3984 22.3555 40.291 22.2285 40.1543 22.1504C40.0176 22.0723 39.8906 22.0332 39.7734 22.0332C39.3828 21.8379 39.0898 21.5645 38.8945 21.2129C38.6992 20.8613 38.4941 20.4707 38.2793 20.041C38.1816 19.8066 38.0742 19.5723 37.957 19.3379C37.8594 19.1035 37.7324 18.8789 37.5762 18.6641L38.1621 18.4883L37.4004 17.6094C37.3418 17.5508 37.2734 17.4922 37.1953 17.4336C37.1367 17.375 37.0781 17.3066 37.0195 17.2285V16.6719C36.9414 15.0703 36.9023 13.5957 36.9023 12.248C36.9219 10.8809 37.1074 9.67969 37.459 8.64453L37.5176 8.49805ZM59.1387 23.3223C58.5723 23.1855 58.1328 22.9609 57.8203 22.6484C57.5273 22.3164 57.3027 21.9355 57.1465 21.5059C57.0098 21.0566 56.9121 20.5684 56.8535 20.041C56.8145 19.5137 56.7656 18.9668 56.707 18.4004C56.7852 18.1465 56.8828 17.9316 57 17.7559C57.1367 17.5801 57.1953 17.3359 57.1758 17.0234C57.3906 16.3984 57.5859 15.793 57.7617 15.207C57.9375 14.6211 58.0547 14.0156 58.1133 13.3906C58.2305 13.2148 58.3477 13.0977 58.4648 13.0391C58.6211 11.9258 58.6406 10.7832 58.5234 9.61133C58.4062 8.43945 58.2109 7.35547 57.9375 6.35938C57.957 6.14453 57.9863 5.98828 58.0254 5.89062C58.0645 5.77344 58.0645 5.67578 58.0254 5.59766C57.9863 5.42188 58.0449 5.33398 58.2012 5.33398C58.3574 5.33398 58.5137 5.33398 58.6699 5.33398C58.6699 4.98242 58.6016 4.64063 58.4648 4.30859C58.3477 3.95703 58.2305 3.55664 58.1133 3.10742C58.2695 2.75586 58.377 2.41406 58.4355 2.08203C58.4941 1.75 58.6016 1.44727 58.7578 1.17383C59.3828 1.36914 59.998 1.59375 60.6035 1.84766C61.209 2.10156 61.8047 2.35547 62.3906 2.60938C62.9766 2.84375 63.5527 3.07812 64.1191 3.3125C64.6855 3.52734 65.2422 3.70313 65.7891 3.83984C66.6289 4.44531 67.4883 5.05078 68.3672 5.65625C69.2656 6.24219 70.0762 6.89648 70.7988 7.61914C71.541 8.32227 72.1562 9.13281 72.6445 10.0508C73.1328 10.9688 73.416 12.0527 73.4941 13.3027C73.4551 13.4199 73.4258 13.5176 73.4062 13.5957C73.3867 13.6738 73.3672 13.752 73.3477 13.8301C73.3281 13.9082 73.3184 13.9961 73.3184 14.0938C73.3184 14.1914 73.3184 14.3281 73.3184 14.5039C72.6152 15.7344 71.7266 16.7695 70.6523 17.6094C69.5781 18.4492 68.4062 19.1914 67.1367 19.8359C65.8672 20.4805 64.5391 21.0762 63.1523 21.623C61.7852 22.1504 60.4473 22.7168 59.1387 23.3223ZM62.0098 6.71094C61.834 6.71094 61.707 6.75 61.6289 6.82812C61.8633 7.70703 62.0391 8.53711 62.1562 9.31836C62.2734 10.0996 62.332 10.8809 62.332 11.6621C62.3516 12.4434 62.3125 13.2441 62.2148 14.0645C62.1172 14.8848 61.9805 15.7734 61.8047 16.7305C62.0586 16.7109 62.2832 16.6621 62.4785 16.584C62.6738 16.5059 62.8691 16.418 63.0645 16.3203C63.2793 16.2227 63.4941 16.1348 63.709 16.0566C63.9434 15.9785 64.207 15.9297 64.5 15.9102C64.5781 15.7539 64.6758 15.6367 64.793 15.5586C64.9297 15.4609 65.0469 15.3633 65.1445 15.2656C65.6328 15.0703 66.1211 14.8652 66.6094 14.6504C67.0977 14.4355 67.5469 14.1914 67.957 13.918C68.3672 13.6445 68.7383 13.332 69.0703 12.9805C69.4023 12.6289 69.6758 12.209 69.8906 11.7207C69.7344 11.4277 69.5391 11.1836 69.3047 10.9883C69.0898 10.7734 68.8555 10.5684 68.6016 10.373C68.3672 10.1582 68.1328 9.94336 67.8984 9.72852C67.6836 9.49414 67.5078 9.23047 67.3711 8.9375C67.0586 8.89844 66.7852 8.82031 66.5508 8.70312C66.3164 8.56641 66.0918 8.43945 65.877 8.32227C65.6621 8.18555 65.4277 8.05859 65.1738 7.94141C64.9395 7.82422 64.6562 7.75586 64.3242 7.73633C63.8164 7.46289 63.3574 7.27734 62.9473 7.17969C62.5371 7.0625 62.2246 6.90625 62.0098 6.71094ZM77.0977 23.9668C75.3789 23.7324 74.334 22.8242 73.9629 21.2422L73.9922 20.9199C74.0703 20.6855 74.1582 20.4219 74.2559 20.1289C74.3535 19.7969 74.4609 19.4746 74.5781 19.1621C74.6953 18.8301 74.8906 18.5371 75.1641 18.2832C75.2227 18.1074 75.3301 17.8438 75.4863 17.4922C75.6621 17.1211 75.9453 16.5742 76.3359 15.8516C76.6484 15.2852 76.8926 14.8359 77.0684 14.5039C77.2637 14.1719 77.4199 13.918 77.5371 13.7422C77.3418 13.3906 77.0684 13.0488 76.7168 12.7168C76.4043 12.1309 76.1309 11.5742 75.8965 11.0469C75.6816 10.5 75.5156 10.0117 75.3984 9.58203C75.3789 9.11328 75.3008 8.63477 75.1641 8.14648C75.1055 7.89258 75.0469 7.63867 74.9883 7.38477C74.9297 7.13086 74.9004 6.86719 74.9004 6.59375C74.8223 6.45703 74.7539 6.28125 74.6953 6.06641L74.7539 5.71484C74.8516 5.55859 74.8711 5.35352 74.8125 5.09961C74.7734 4.82617 74.7148 4.55273 74.6367 4.2793C74.5781 4.02539 74.5195 3.76172 74.4609 3.48828C74.4219 3.19531 74.4121 2.91211 74.4316 2.63867C74.4512 2.36523 74.5195 2.10156 74.6367 1.84766C74.7734 1.59375 74.998 1.37891 75.3105 1.20312L75.6035 0.998047L75.8965 1.17383C76.1113 1.31055 76.3164 1.42773 76.5117 1.52539C76.707 1.62305 76.9023 1.7207 77.0977 1.81836C77.332 1.93555 77.5664 2.0625 77.8008 2.19922C78.0352 2.31641 78.2891 2.45312 78.5625 2.60938L78.8555 2.81445L78.8262 3.13672C78.8262 3.17578 78.8359 3.22461 78.8555 3.2832C78.875 3.3418 78.9043 3.39062 78.9434 3.42969L79.2656 3.51758L79.2949 3.92773V4.2793C79.2949 4.45508 79.3047 4.58203 79.3242 4.66016C79.3438 4.71875 79.3828 4.78711 79.4414 4.86523L79.5879 5.24609C79.5879 5.59766 79.6172 5.91016 79.6758 6.18359C79.7344 6.45703 79.8027 6.73047 79.8809 7.00391C79.9785 7.27734 80.0566 7.56055 80.1152 7.85352C80.1738 8.12695 80.1836 8.42969 80.1445 8.76172C80.2617 8.70312 80.3789 8.61523 80.4961 8.49805C80.5352 8.45898 80.5742 8.41992 80.6133 8.38086C80.6719 8.3418 80.7305 8.30273 80.7891 8.26367L82.8398 5.48047L82.7812 5.12891L83.5137 4.42578C83.709 4.26953 83.8945 4.11328 84.0703 3.95703C84.2461 3.78125 84.3926 3.58594 84.5098 3.37109L84.6855 3.10742C85.5645 1.93555 86.6973 1.21289 88.084 0.939453L88.582 0.822266L88.7285 1.29102C88.8262 1.56445 89.0117 1.80859 89.2852 2.02344C89.5781 2.21875 89.8906 2.41406 90.2227 2.60938L90.5449 2.81445C90.6621 3.04883 90.7207 3.22461 90.7207 3.3418C90.7207 3.45898 90.7109 3.55664 90.6914 3.63477L90.8379 4.01562C90.623 4.58203 90.3887 4.99219 90.1348 5.24609C89.8809 5.48047 89.6172 5.70508 89.3438 5.91992C89.1289 6.0957 88.9336 6.27148 88.7578 6.44727C88.582 6.62305 88.4453 6.81836 88.3477 7.0332L88.1133 7.32617C87.625 7.58008 87.3125 7.95117 87.1758 8.43945L87.0586 8.84961H86.6191C86.5996 8.84961 86.5508 8.89844 86.4727 8.99609C86.3945 9.07422 86.2773 9.2793 86.1211 9.61133C85.9453 9.8457 85.8184 10.002 85.7402 10.0801C85.6816 10.1387 85.6328 10.1875 85.5938 10.2266C85.5547 10.3242 85.5156 10.4121 85.4766 10.4902C85.457 10.5684 85.4277 10.666 85.3887 10.7832L85.2129 11.0176C85.0371 11.1738 84.9102 11.3301 84.832 11.4863C84.7539 11.623 84.666 11.7891 84.5684 11.9844C84.4902 12.1602 84.4023 12.3457 84.3047 12.541C84.207 12.7168 84.0703 12.8926 83.8945 13.0684L83.9531 13.3906L83.7188 13.5957C83.5625 13.7324 83.4258 13.9082 83.3086 14.123C83.1914 14.3184 83.0742 14.5234 82.957 14.7383C82.8398 14.9727 82.7129 15.207 82.5762 15.4414C82.4395 15.6758 82.2637 15.8906 82.0488 16.0859C81.9121 16.4375 81.7852 16.7109 81.668 16.9062C81.5703 17.1016 81.3945 17.3359 81.1406 17.6094C80.9062 18.5469 80.3496 19.5527 79.4707 20.627C79.4512 20.8418 79.3828 21.0566 79.2656 21.2715C79.168 21.4668 79.0605 21.6523 78.9434 21.8281C78.9043 21.9062 78.8555 21.9941 78.7969 22.0918C78.7578 22.1699 78.7285 22.2285 78.709 22.2676L78.6211 22.5898C78.5039 22.8047 78.377 22.9805 78.2402 23.1172C78.123 23.2539 78.0059 23.3809 77.8887 23.498C77.8301 23.5371 77.7715 23.5859 77.7129 23.6445C77.6738 23.7031 77.6348 23.752 77.5957 23.791L77.0977 23.9668ZM101.062 8.84961C100.242 8.51758 99.5586 8.04883 99.0117 7.44336C98.4844 6.83789 98.0547 6.125 97.7227 5.30469C97.918 4.77734 98.2305 4.33789 98.6602 3.98633C99.0898 3.61523 99.5684 3.30273 100.096 3.04883C100.643 2.79492 101.219 2.58984 101.824 2.43359C102.43 2.27734 103.016 2.14062 103.582 2.02344C103.699 2.0625 103.758 2.0625 103.758 2.02344C103.758 1.98437 103.807 2.00391 103.904 2.08203C104.607 1.86719 105.418 1.66211 106.336 1.4668C107.254 1.25195 108.23 1.17383 109.266 1.23242C109.402 1.1543 109.568 1.11523 109.764 1.11523C109.959 1.0957 110.164 1.08594 110.379 1.08594C110.594 1.08594 110.799 1.08594 110.994 1.08594C111.189 1.06641 111.355 1.02734 111.492 0.96875C111.609 1.10547 111.785 1.19336 112.02 1.23242C112.254 1.25195 112.498 1.34961 112.752 1.52539C112.83 1.54492 112.83 1.51562 112.752 1.4375C112.674 1.33984 112.684 1.27148 112.781 1.23242C113.035 1.23242 113.26 1.29102 113.455 1.4082C113.65 1.52539 113.826 1.66211 113.982 1.81836C114.158 1.95508 114.314 2.08203 114.451 2.19922C114.607 2.31641 114.773 2.375 114.949 2.375C115.125 2.58984 115.33 2.79492 115.564 2.99023C115.818 3.16602 116.053 3.35156 116.268 3.54688C116.502 3.74219 116.688 3.95703 116.824 4.19141C116.98 4.42578 117.059 4.68945 117.059 4.98242C117.039 5.09961 117.078 5.16797 117.176 5.1875C117.273 5.20703 117.342 5.26562 117.381 5.36328C117.4 6.08594 117.283 6.71094 117.029 7.23828C116.795 7.76562 116.492 8.25391 116.121 8.70312C115.75 9.13281 115.35 9.54297 114.92 9.93359C114.51 10.3242 114.129 10.7441 113.777 11.1934C114.012 11.4863 114.275 11.7598 114.568 12.0137C114.881 12.248 115.193 12.4824 115.506 12.7168C115.818 12.9512 116.111 13.2051 116.385 13.4785C116.678 13.7324 116.922 14.0254 117.117 14.3574C117.176 14.4746 117.303 14.5527 117.498 14.5918C117.557 14.8262 117.635 15.0703 117.732 15.3242C117.85 15.5586 117.957 15.793 118.055 16.0273C118.152 16.2422 118.211 16.4375 118.23 16.6133C118.25 16.7891 118.201 16.9355 118.084 17.0527C118.221 17.1309 118.299 17.2578 118.318 17.4336C118.338 17.5898 118.338 17.7168 118.318 17.8145C117.889 18.3418 117.596 18.7129 117.439 18.9277C117.283 19.1426 117.166 19.2988 117.088 19.3965C117.01 19.4941 116.932 19.582 116.854 19.6602C116.775 19.7383 116.6 19.8945 116.326 20.1289C115.291 20.7539 114.207 21.3203 113.074 21.8281C111.961 22.3164 110.799 22.6484 109.588 22.8242C109.49 22.9609 109.344 23.0684 109.148 23.1465C108.973 23.2441 108.768 23.3223 108.533 23.3809C108.299 23.4395 108.045 23.4883 107.771 23.5273C107.518 23.5664 107.283 23.6055 107.068 23.6445C106.971 23.6055 106.912 23.5371 106.893 23.4395C106.893 23.3613 106.844 23.3027 106.746 23.2637C106.727 23.498 106.619 23.6152 106.424 23.6152C106.248 23.6348 106.023 23.5957 105.75 23.498C105.477 23.4004 105.193 23.2637 104.9 23.0879C104.607 22.9121 104.354 22.7461 104.139 22.5898C104.041 22.7656 103.914 22.9512 103.758 23.1465C103.621 23.3418 103.475 23.4785 103.318 23.5566C103.045 23.5176 102.84 23.4883 102.703 23.4688C102.586 23.4492 102.469 23.498 102.352 23.6152C102.195 23.5371 102.078 23.4492 102 23.3516C101.922 23.2734 101.844 23.1855 101.766 23.0879C101.688 23.0098 101.6 22.9414 101.502 22.8828C101.404 22.8047 101.258 22.7363 101.062 22.6777C101.102 22.5801 101.072 22.4336 100.975 22.2383C100.877 22.0234 100.74 21.8965 100.564 21.8574C100.662 21.7012 100.623 21.5059 100.447 21.2715C100.271 21.0176 100.135 20.7344 100.037 20.4219C100.057 20.2852 100.066 20.1484 100.066 20.0117C100.086 19.8555 100.105 19.7188 100.125 19.6016C100.164 19.4648 100.213 19.3477 100.271 19.25C100.33 19.1523 100.428 19.084 100.564 19.0449C100.545 18.791 100.467 18.5469 100.33 18.3125C100.506 18.1758 100.623 18.0098 100.682 17.8145C100.74 17.5996 100.789 17.3848 100.828 17.1699C100.887 16.9551 100.955 16.75 101.033 16.5547C101.111 16.3398 101.238 16.1641 101.414 16.0273C101.375 15.9688 101.336 15.9199 101.297 15.8809C101.258 15.8418 101.238 15.7734 101.238 15.6758C101.531 15.1875 101.736 14.7773 101.854 14.4453C101.971 14.0938 102.059 13.7617 102.117 13.4492C102.195 13.1172 102.273 12.7656 102.352 12.3945C102.43 12.0234 102.586 11.5547 102.82 10.9883C102.801 10.6367 102.84 10.3242 102.938 10.0508C103.035 9.77734 103.133 9.51367 103.23 9.25977C103.348 8.98633 103.436 8.70312 103.494 8.41016C103.553 8.11719 103.543 7.77539 103.465 7.38477C103.133 7.42383 102.889 7.54102 102.732 7.73633C102.596 7.93164 102.508 8.19531 102.469 8.52734C102.293 8.68359 102.068 8.76172 101.795 8.76172C101.521 8.74219 101.277 8.77148 101.062 8.84961ZM113.953 14.5039C113.211 14.0938 112.527 13.8496 111.902 13.7715C111.297 13.6934 110.711 13.7031 110.145 13.8008C109.598 13.8789 109.07 13.9961 108.562 14.1523C108.055 14.3086 107.547 14.4258 107.039 14.5039C106.785 15.168 106.521 15.9004 106.248 16.7012C105.975 17.502 105.711 18.2832 105.457 19.0449C106.16 18.9473 106.805 18.8008 107.391 18.6055C107.977 18.4102 108.543 18.1953 109.09 17.9609C109.637 17.707 110.174 17.4629 110.701 17.2285C111.229 16.9746 111.775 16.7402 112.342 16.5254C112.4 16.291 112.527 16.1055 112.723 15.9688C112.918 15.832 113.113 15.7051 113.309 15.5879C113.504 15.4512 113.67 15.3047 113.807 15.1484C113.943 14.9922 113.992 14.7773 113.953 14.5039ZM111.902 5.33398C110.691 5.29492 109.5 5.40234 108.328 5.65625C107.156 5.91016 106.17 6.28125 105.369 6.76953C105.76 7.10156 106.16 7.39453 106.57 7.64844C107 7.90234 107.322 8.24414 107.537 8.67383C108.475 8.30273 109.295 7.83398 109.998 7.26758C110.701 6.68164 111.336 6.03711 111.902 5.33398ZM118.465 20.2168L118.846 19.9238L118.875 19.3086C119.363 18.1172 119.861 16.9746 120.369 15.8809C120.896 14.7871 121.443 13.6641 122.01 12.5117C122.186 12.1406 122.361 11.7695 122.537 11.3984C122.732 11.0273 122.918 10.6465 123.094 10.2559C123.074 10.1777 123.064 10.0996 123.064 10.0215C123.064 9.92383 123.084 9.81641 123.123 9.69922C123.396 9.30859 123.611 8.95703 123.768 8.64453C123.943 8.33203 124.109 8.00977 124.266 7.67773C124.441 7.28711 124.627 6.89648 124.822 6.50586C125.037 6.11523 125.301 5.73438 125.613 5.36328L125.818 5.07031L126.141 5.09961C126.219 5.06055 126.297 5.03125 126.375 5.01172C126.473 4.97266 126.59 4.95312 126.727 4.95312L127.254 5.04102C127.898 4.74805 128.465 4.32812 128.953 3.78125C129.461 3.21484 129.969 2.54102 130.477 1.75977L130.828 1.26172L131.297 1.55469C131.395 1.61328 131.551 1.67188 131.766 1.73047C131.98 1.78906 132.205 1.85742 132.439 1.93555C132.85 2.0332 133.25 2.15039 133.641 2.28711C134.031 2.4043 134.334 2.57031 134.549 2.78516L134.695 3.04883C134.734 3.26367 134.764 3.45898 134.783 3.63477C134.822 3.81055 134.861 3.98633 134.9 4.16211C134.979 4.57227 135.047 4.98242 135.105 5.39258C135.164 5.7832 135.203 6.22266 135.223 6.71094C135.32 7.10156 135.408 7.50195 135.486 7.91211C135.584 8.30273 135.672 8.69336 135.75 9.08398C135.848 9.65039 135.955 10.1973 136.072 10.7246C136.189 11.2324 136.346 11.7207 136.541 12.1895C136.736 12.1895 136.854 12.1992 136.893 12.2188C137.127 12.1211 137.4 12.0625 137.713 12.043L138.094 12.0137L138.211 12.3652C138.25 12.4238 138.299 12.4824 138.357 12.541C138.416 12.5996 138.484 12.6582 138.562 12.7168C138.875 12.7363 139.1 12.8047 139.236 12.9219C139.393 13.0195 139.52 13.1172 139.617 13.2148C139.656 13.2539 139.705 13.3027 139.764 13.3613C139.822 13.4004 139.871 13.4297 139.91 13.4492L140.438 13.6543L140.145 14.2109C139.93 14.6211 139.598 15.0215 139.148 15.4121C138.719 15.8027 138.23 16.125 137.684 16.3789C137.723 16.5156 137.742 16.6426 137.742 16.7598C137.762 16.877 137.791 17.0137 137.83 17.1699C137.908 17.5605 137.967 17.9707 138.006 18.4004C138.064 18.8105 138.064 19.2402 138.006 19.6895C137.811 20.1973 137.576 20.6562 137.303 21.0664C137.049 21.457 136.736 21.8184 136.365 22.1504C136.014 22.4629 135.613 22.7266 135.164 22.9414C134.715 23.1367 134.246 23.2441 133.758 23.2637C133.484 23.2051 133.279 23.1367 133.143 23.0586C133.025 22.9805 132.918 22.9023 132.82 22.8242C132.664 22.707 132.537 22.6289 132.439 22.5898L132.059 22.4141L132.176 21.9746C132.234 21.8184 132.225 21.6816 132.146 21.5645C132.088 21.4473 131.951 21.291 131.736 21.0957C131.658 21.0371 131.59 20.9785 131.531 20.9199C131.473 20.8418 131.404 20.7637 131.326 20.6855L130.74 20.0117L131.707 19.748C132.293 19.5918 132.684 19.3965 132.879 19.1621C133.074 18.9082 133.152 18.4688 133.113 17.8438C132.625 17.7461 132.225 17.7363 131.912 17.8145C131.6 17.873 131.287 17.9414 130.975 18.0195C130.525 18.1367 130.086 18.2441 129.656 18.3418C129.227 18.4199 128.758 18.459 128.25 18.459C127.918 18.459 127.566 18.4297 127.195 18.3711L126.873 18.3418L126.785 18.0195C126.785 17.9805 126.756 17.9414 126.697 17.9023C126.658 17.8438 126.619 17.7949 126.58 17.7559C126.482 17.6387 126.365 17.4824 126.229 17.2871C126.092 17.0918 126.062 16.8477 126.141 16.5547C126.004 16.3398 125.926 16.1152 125.906 15.8809C125.828 16.0371 125.76 16.1934 125.701 16.3496C125.662 16.4863 125.623 16.623 125.584 16.7598L125.467 17.1406L125.086 17.1992C125.047 17.2383 125.008 17.2969 124.969 17.375C124.949 17.4531 124.949 17.5117 124.969 17.5508L125.086 17.873L124.793 18.1367C124.754 18.1953 124.705 18.2441 124.646 18.2832C124.588 18.3223 124.539 18.3613 124.5 18.4004C124.461 18.6152 124.402 18.8203 124.324 19.0156C124.266 19.2109 124.197 19.4062 124.119 19.6016C124.021 19.9141 123.924 20.2168 123.826 20.5098C123.748 20.8027 123.709 21.0957 123.709 21.3887L123.592 21.7695C123.494 21.9258 123.367 22.043 123.211 22.1211C123.074 22.1992 122.938 22.2676 122.801 22.3262C122.605 22.4043 122.469 22.4824 122.391 22.5605L122.303 22.9414L121.863 23C121.609 23.0586 121.424 23.0977 121.307 23.1172C121.209 23.1367 121.092 23.1465 120.955 23.1465L120.574 23.1172C120.34 22.8828 120.145 22.707 119.988 22.5898C119.852 22.4531 119.686 22.3359 119.49 22.2383L119.314 22.0039C119.236 21.8477 119.188 21.7109 119.168 21.5938C119.148 21.457 119.119 21.3203 119.08 21.1836C119.041 20.9297 118.982 20.7539 118.904 20.6562L118.465 20.2168ZM127.811 12.5996C127.537 12.9902 127.273 13.4004 127.02 13.8301C127.156 13.8105 127.283 13.8008 127.4 13.8008C127.537 13.8008 127.674 13.791 127.811 13.7715C128.494 13.7324 129.129 13.6836 129.715 13.625C130.301 13.5664 130.936 13.4688 131.619 13.332C131.463 12.6094 131.287 11.877 131.092 11.1348C130.916 10.373 130.721 9.61133 130.506 8.84961L130.359 9.14258C129.871 9.66992 129.402 10.2363 128.953 10.8418C128.504 11.4473 128.133 12.0234 127.84 12.5703L127.811 12.5996ZM141.932 22.0039C141.775 21.8477 141.658 21.6621 141.58 21.4473C141.521 21.2324 141.365 21.0566 141.111 20.9199C141.072 20.627 141.014 20.2949 140.936 19.9238C140.877 19.5332 140.809 19.1426 140.73 18.752C140.672 18.3418 140.623 17.9414 140.584 17.5508C140.564 17.1406 140.584 16.7695 140.643 16.4375C140.682 16.2617 140.74 16.0957 140.818 15.9395C140.916 15.7832 141.004 15.6367 141.082 15.5C141.18 15.3438 141.248 15.1875 141.287 15.0312C141.346 14.875 141.355 14.7188 141.316 14.5625C141.434 14.543 141.502 14.4844 141.521 14.3867C141.561 14.2695 141.658 14.2305 141.814 14.2695C141.951 13.8398 142.098 13.4395 142.254 13.0684C142.41 12.6973 142.576 12.3359 142.752 11.9844C142.928 11.6328 143.104 11.2812 143.279 10.9297C143.475 10.5586 143.65 10.1484 143.807 9.69922C143.475 9.38672 143.23 9.05469 143.074 8.70312C142.938 8.33203 142.83 7.96094 142.752 7.58984C142.674 7.21875 142.615 6.84766 142.576 6.47656C142.537 6.08594 142.459 5.69531 142.342 5.30469C142.576 4.95312 142.859 4.66992 143.191 4.45508C143.523 4.2207 143.885 4.03516 144.275 3.89844C144.686 3.74219 145.125 3.625 145.594 3.54688C146.062 3.44922 146.561 3.3418 147.088 3.22461C148.025 2.93164 148.865 2.70703 149.607 2.55078C150.35 2.375 151.072 2.23828 151.775 2.14062C152.479 2.02344 153.211 1.92578 153.973 1.84766C154.734 1.75 155.613 1.61328 156.609 1.4375C156.629 1.49609 156.658 1.52539 156.697 1.52539C156.756 1.52539 156.824 1.52539 156.902 1.52539C156.961 1.66211 157.068 1.73047 157.225 1.73047C157.225 1.67188 157.215 1.62305 157.195 1.58398C157.195 1.52539 157.195 1.47656 157.195 1.4375C157.234 1.4375 157.283 1.44727 157.342 1.4668C157.42 1.48633 157.479 1.50586 157.518 1.52539C157.576 1.54492 157.625 1.54492 157.664 1.52539C157.703 1.48633 157.713 1.41797 157.693 1.32031C157.928 1.73047 158.23 2.07227 158.602 2.3457C158.973 2.59961 159.383 2.82422 159.832 3.01953C159.852 3.19531 159.852 3.32227 159.832 3.40039C159.832 3.47852 159.822 3.55664 159.803 3.63477C159.783 3.69336 159.773 3.77148 159.773 3.86914C159.773 3.94727 159.793 4.06445 159.832 4.2207C159.52 4.74805 159.158 5.1582 158.748 5.45117C158.357 5.74414 157.938 5.96875 157.488 6.125C157.039 6.28125 156.561 6.39844 156.053 6.47656C155.564 6.55469 155.057 6.64258 154.529 6.74023C154.021 6.81836 153.504 6.93555 152.977 7.0918C152.449 7.24805 151.932 7.48242 151.424 7.79492C151.268 7.73633 151.121 7.7168 150.984 7.73633C150.867 7.73633 150.74 7.75586 150.604 7.79492C150.467 7.83398 150.311 7.87305 150.135 7.91211C149.979 7.95117 149.783 7.95117 149.549 7.91211C149.393 8.04883 149.207 8.14648 148.992 8.20508C148.797 8.26367 148.592 8.32227 148.377 8.38086C148.475 8.5957 148.514 8.81055 148.494 9.02539C148.494 9.24023 148.523 9.42578 148.582 9.58203C149.402 9.66016 150.311 9.66016 151.307 9.58203C152.303 9.48438 153.279 9.41602 154.236 9.37695C154.256 9.47461 154.246 9.54297 154.207 9.58203C154.168 9.62109 154.148 9.68945 154.148 9.78711C154.324 9.9043 154.49 10.0508 154.646 10.2266C154.803 10.4023 154.959 10.5781 155.115 10.7539C155.291 10.9102 155.467 11.0469 155.643 11.1641C155.818 11.2617 156.023 11.3008 156.258 11.2812C156.355 11.4766 156.424 11.6816 156.463 11.8965C156.502 12.1113 156.473 12.3359 156.375 12.5703C155.984 12.8242 155.604 13.0879 155.232 13.3613C154.861 13.6152 154.471 13.8496 154.061 14.0645C153.67 14.2793 153.24 14.4551 152.771 14.5918C152.303 14.7285 151.795 14.7871 151.248 14.7676C151.15 14.7676 151.062 14.7676 150.984 14.7676C150.926 14.7676 150.848 14.7285 150.75 14.6504C150.555 14.748 150.291 14.7871 149.959 14.7676C149.646 14.7285 149.383 14.7578 149.168 14.8555C148.895 14.7578 148.572 14.709 148.201 14.709C147.85 14.709 147.537 14.6602 147.264 14.5625C146.912 15.0703 146.58 15.6074 146.268 16.1738C145.955 16.7207 145.682 17.3066 145.447 17.9316C146.248 18.0488 146.912 18.0977 147.439 18.0781C147.967 18.0586 148.465 18.0195 148.934 17.9609C149.402 17.9023 149.881 17.8438 150.369 17.7852C150.877 17.7266 151.492 17.707 152.215 17.7266C152.703 17.4922 153.26 17.3359 153.885 17.2578C154.529 17.1602 155.125 17.0234 155.672 16.8477C155.867 16.9062 156.033 17.0234 156.17 17.1992C156.307 17.3555 156.434 17.5215 156.551 17.6973C156.688 17.8535 156.824 17.9902 156.961 18.1074C157.098 18.2246 157.273 18.2637 157.488 18.2246C157.586 18.3223 157.645 18.4395 157.664 18.5762C157.703 18.7129 157.732 18.8398 157.752 18.957C157.791 19.0742 157.84 19.1719 157.898 19.25C157.957 19.3086 158.064 19.3281 158.221 19.3086C157.85 20.0703 157.43 20.6562 156.961 21.0664C156.512 21.4766 155.994 21.7988 155.408 22.0332C154.842 22.248 154.197 22.4141 153.475 22.5312C152.771 22.6289 151.98 22.7559 151.102 22.9121C150.887 22.9512 150.701 22.9512 150.545 22.9121C150.408 22.8535 150.262 22.8242 150.105 22.8242C149.559 22.9219 148.904 23.0195 148.143 23.1172C147.4 23.2148 146.648 23.2539 145.887 23.2344C145.125 23.2148 144.393 23.1172 143.689 22.9414C142.986 22.7656 142.4 22.4531 141.932 22.0039Z" fill="white" fill-opacity="0.85"/>
</svg>
