<svg width="4" height="16" viewBox="0 0 4 16" fill="none" xmlns="http://www.w3.org/2000/svg">
<path d="M0.25 14.0625C0.25 13.6481 0.41462 13.2507 0.707646 12.9576C1.00067 12.6646 1.3981 12.5 1.8125 12.5C2.2269 12.5 2.62433 12.6646 2.91735 12.9576C3.21038 13.2507 3.375 13.6481 3.375 14.0625C3.375 14.4769 3.21038 14.8743 2.91735 15.1674C2.62433 15.4604 2.2269 15.625 1.8125 15.625C1.3981 15.625 1.00067 15.4604 0.707646 15.1674C0.41462 14.8743 0.25 14.4769 0.25 14.0625ZM0.25 7.8125C0.25 7.3981 0.41462 7.00067 0.707646 6.70765C1.00067 6.41462 1.3981 6.25 1.8125 6.25C2.2269 6.25 2.62433 6.41462 2.91735 6.70765C3.21038 7.00067 3.375 7.3981 3.375 7.8125C3.375 8.2269 3.21038 8.62433 2.91735 8.91735C2.62433 9.21038 2.2269 9.375 1.8125 9.375C1.3981 9.375 1.00067 9.21038 0.707646 8.91735C0.41462 8.62433 0.25 8.2269 0.25 7.8125ZM0.25 1.5625C0.25 1.1481 0.41462 0.750671 0.707646 0.457646C1.00067 0.16462 1.3981 0 1.8125 0C2.2269 0 2.62433 0.16462 2.91735 0.457646C3.21038 0.750671 3.375 1.1481 3.375 1.5625C3.375 1.9769 3.21038 2.37433 2.91735 2.66735C2.62433 2.96038 2.2269 3.125 1.8125 3.125C1.3981 3.125 1.00067 2.96038 0.707646 2.66735C0.41462 2.37433 0.25 1.9769 0.25 1.5625Z" fill="white"/>
</svg>
