<svg width="24" height="26" viewBox="0 0 24 26" fill="none" xmlns="http://www.w3.org/2000/svg">
<path d="M11.9998 0.199951C10.3024 0.199951 8.67455 0.874235 7.47432 2.07447C6.27409 3.2747 5.59981 4.90257 5.5998 6.59995C5.59981 8.29734 6.27409 9.9252 7.47432 11.1254C8.67455 12.3257 10.3024 13 11.9998 13C13.6972 13 15.3251 12.3257 16.5253 11.1254C17.7255 9.9252 18.3998 8.29734 18.3998 6.59995C18.3998 4.90257 17.7255 3.2747 16.5253 2.07447C15.3251 0.874235 13.6972 0.199951 11.9998 0.199951ZM7.19981 6.59995C7.19981 5.32691 7.70552 4.10601 8.60569 3.20584C9.50587 2.30566 10.7268 1.79995 11.9998 1.79995C13.2728 1.79995 14.4937 2.30566 15.3939 3.20584C16.2941 4.10601 16.7998 5.32691 16.7998 6.59995C16.7998 7.87299 16.2941 9.09389 15.3939 9.99406C14.4937 10.8942 13.2728 11.4 11.9998 11.4C10.7268 11.4 9.50587 10.8942 8.60569 9.99406C7.70552 9.09389 7.19981 7.87299 7.19981 6.59995ZM4.0142 14.6C3.59276 14.5981 3.1751 14.6794 2.7852 14.8394C2.39529 14.9994 2.04082 15.2348 1.74215 15.5321C1.44347 15.8294 1.20648 16.1828 1.04476 16.572C0.883046 16.9612 0.7998 17.3785 0.799805 17.7999C0.799805 20.5056 2.13261 22.5456 4.21581 23.8752C6.26701 25.1824 9.03181 25.7999 11.9998 25.7999C14.9678 25.7999 17.7326 25.1824 19.7838 23.8752C21.867 22.5472 23.1998 20.504 23.1998 17.7999C23.1998 16.9513 22.8627 16.1373 22.2625 15.5372C21.6624 14.9371 20.8485 14.6 19.9998 14.6H4.0142ZM2.3998 17.7999C2.3998 16.9151 3.1166 16.2 4.0142 16.2H19.9998C20.4242 16.2 20.8311 16.3685 21.1312 16.6686C21.4312 16.9686 21.5998 17.3756 21.5998 17.7999C21.5998 19.8944 20.6046 21.4543 18.923 22.5247C17.211 23.6175 14.7758 24.1999 11.9998 24.1999C9.22381 24.1999 6.78861 23.6175 5.0766 22.5247C3.3966 21.4527 2.3998 19.896 2.3998 17.7999Z" fill="white" fill-opacity="0.85"/>
</svg>
