<svg width="19" height="19" viewBox="0 0 19 19" fill="none" xmlns="http://www.w3.org/2000/svg">
<path fill-rule="evenodd" clip-rule="evenodd" d="M11.9842 13.0896C10.5802 14.2114 8.79998 14.753 7.00912 14.6032C5.21825 14.4534 3.55272 13.6235 2.3546 12.2841C1.15647 10.9446 0.516702 9.19725 0.566688 7.40083C0.616673 5.60441 1.35262 3.89531 2.62337 2.62456C3.89413 1.3538 5.60323 0.617856 7.39965 0.56787C9.19607 0.517885 10.9434 1.15765 12.2829 2.35578C13.6224 3.5539 14.4522 5.21943 14.602 7.0103C14.7518 8.80116 14.2102 10.5814 13.0884 11.9854L18.4592 17.3552C18.536 17.4267 18.5976 17.513 18.6403 17.6088C18.683 17.7046 18.7059 17.8081 18.7078 17.913C18.7096 18.0179 18.6903 18.1221 18.651 18.2194C18.6117 18.3166 18.5533 18.405 18.4791 18.4792C18.4049 18.5534 18.3165 18.6119 18.2192 18.6512C18.122 18.6905 18.0178 18.7098 17.9129 18.7079C17.808 18.7061 17.7045 18.6831 17.6087 18.6404C17.5128 18.5977 17.4266 18.5361 17.3551 18.4594L11.9842 13.0896ZM3.72798 11.4625C2.96344 10.6979 2.44273 9.72378 2.23164 8.6633C2.02056 7.60283 2.12858 6.50358 2.54206 5.50448C2.95553 4.50538 3.65591 3.65127 4.55466 3.0501C5.45342 2.44894 6.51021 2.12769 7.59149 2.12696C8.67277 2.12623 9.73 2.44606 10.6296 3.04602C11.5291 3.64597 12.2306 4.49914 12.6455 5.49768C13.0603 6.49622 13.1698 7.59532 12.9601 8.65608C12.7505 9.71684 12.2311 10.6916 11.4676 11.4573L11.4624 11.4625L11.4571 11.4667C10.4312 12.4902 9.04093 13.0647 7.5917 13.0639C6.14248 13.0632 4.75282 12.4872 3.72798 11.4625Z" fill="white" fill-opacity="0.9"/>
</svg>
