<svg width="18" height="18" viewBox="0 0 18 18" fill="none" xmlns="http://www.w3.org/2000/svg">
<path d="M17.3301 0.670019C17.141 0.482186 16.9037 0.35014 16.6443 0.288393C16.385 0.226647 16.1136 0.23759 15.8601 0.320019L1.23012 5.20002C0.958795 5.28599 0.71903 5.45045 0.541111 5.67261C0.363193 5.89477 0.255103 6.16468 0.230492 6.44824C0.205881 6.7318 0.265854 7.01629 0.402836 7.26579C0.539818 7.51528 0.747665 7.71858 1.00012 7.85002L7.07012 10.85L10.0701 16.94C10.1907 17.1784 10.3752 17.3785 10.603 17.518C10.8309 17.6576 11.093 17.731 11.3601 17.73H11.4601C11.7462 17.7089 12.0194 17.6023 12.2441 17.424C12.4688 17.2456 12.6346 17.0039 12.7201 16.73L17.6701 2.14002C17.7585 1.88795 17.7735 1.61596 17.7133 1.35572C17.6531 1.09547 17.5202 0.857676 17.3301 0.670019ZM1.85012 6.58002L14.6201 2.32002L7.53012 9.41002L1.85012 6.58002ZM11.4301 16.15L8.59012 10.47L15.6801 3.38002L11.4301 16.15Z" fill="white" fill-opacity="0.8"/>
</svg>
