<svg width="24" height="24" viewBox="0 0 24 24" fill="none" xmlns="http://www.w3.org/2000/svg">
<path d="M12 0C5.37188 0 0 5.37188 0 12C0 18.6281 5.37188 24 12 24C18.6281 24 24 18.6281 24 12C24 5.37188 18.6281 0 12 0ZM12 21.9984C6.47812 21.9984 2.00156 17.5219 2.00156 12C2.00156 6.47812 6.47812 2.00156 12 2.00156C17.5219 2.00156 21.9984 6.47812 21.9984 12C21.9984 17.5219 17.5219 21.9984 12 21.9984ZM12.9984 3.99844H10.9969V12L15.4969 16.5L16.9969 15L12.9984 11.0016V3.99844Z" fill="white" fill-opacity="0.6"/>
</svg>
